<?xml version="1.0" encoding="utf-8"?>
<!-- Generator: Adobe Illustrator 24.0.2, SVG Export Plug-In . SVG Version: 6.00 Build 0)  -->
<svg version="1.2" baseProfile="tiny" id="Ebene_1" xmlns="http://www.w3.org/2000/svg" xmlns:xlink="http://www.w3.org/1999/xlink"
	 x="0px" y="0px" viewBox="0 0 50 50" xml:space="preserve">
<g>
	<path fill="#E80056" d="M30.01,49.22c-0.33,0-0.64-0.17-0.81-0.48c-0.25-0.45-0.09-1.02,0.36-1.27l1.41-0.79
		c0.45-0.25,1.02-0.09,1.27,0.36c0.25,0.45,0.09,1.02-0.36,1.27l-1.41,0.79C30.32,49.18,30.16,49.22,30.01,49.22z M20.2,49.06
		c-0.32,0-0.64-0.17-0.81-0.47c-0.26-0.45-0.1-1.02,0.35-1.27l16.42-9.39c0.45-0.26,1.02-0.1,1.27,0.35
		c0.26,0.45,0.1,1.02-0.35,1.27l-16.42,9.39C20.52,49.02,20.36,49.06,20.2,49.06z M13.68,47.01c-0.33,0-0.64-0.17-0.82-0.48
		c-0.25-0.45-0.09-1.02,0.36-1.27l1.66-0.93c0.45-0.25,1.02-0.09,1.27,0.36c0.25,0.45,0.09,1.02-0.36,1.27l-1.66,0.93
		C13.99,46.98,13.84,47.01,13.68,47.01z M34.74,46.52c-0.32,0-0.64-0.17-0.81-0.47c-0.26-0.45-0.1-1.02,0.35-1.27l7.68-4.37
		c0.45-0.26,1.02-0.1,1.27,0.35c0.26,0.45,0.1,1.02-0.35,1.27l-7.68,4.37C35.05,46.48,34.89,46.52,34.74,46.52z M18.52,44.26
		c-0.32,0-0.64-0.17-0.81-0.47c-0.26-0.45-0.1-1.02,0.35-1.27l22.34-12.79c0.45-0.26,1.02-0.1,1.27,0.35
		c0.26,0.45,0.1,1.02-0.35,1.27L18.98,44.13C18.83,44.22,18.67,44.26,18.52,44.26z M9.19,43.81c-0.32,0-0.64-0.17-0.81-0.47
		c-0.26-0.45-0.1-1.02,0.35-1.27l14.78-8.45c0.45-0.26,1.02-0.1,1.27,0.35c0.26,0.45,0.1,1.02-0.35,1.27L9.65,43.69
		C9.51,43.77,9.35,43.81,9.19,43.81z M5.75,40c-0.32,0-0.64-0.17-0.81-0.47c-0.26-0.45-0.1-1.02,0.35-1.27l5.52-3.16
		c0.45-0.26,1.02-0.1,1.27,0.35c0.26,0.45,0.1,1.02-0.35,1.27l-5.52,3.16C6.07,39.96,5.91,40,5.75,40z M39.81,37.83
		c-0.32,0-0.64-0.17-0.81-0.47c-0.26-0.45-0.1-1.02,0.35-1.27L47,31.73c0.45-0.25,1.02-0.1,1.27,0.35c0.26,0.45,0.1,1.02-0.35,1.27
		l-7.65,4.36C40.13,37.79,39.97,37.83,39.81,37.83z M3.23,35.66c-0.32,0-0.64-0.17-0.81-0.47c-0.26-0.45-0.1-1.02,0.35-1.27
		l11.29-6.46c0.45-0.26,1.02-0.1,1.27,0.35c0.26,0.45,0.1,1.02-0.35,1.27L3.69,35.54C3.55,35.63,3.39,35.66,3.23,35.66z M14.6,34.93
		c-0.32,0-0.64-0.17-0.81-0.47c-0.26-0.45-0.1-1.02,0.35-1.27L41.1,17.76c0.45-0.26,1.02-0.1,1.27,0.35
		c0.26,0.45,0.1,1.02-0.35,1.27L15.06,34.81C14.92,34.89,14.76,34.93,14.6,34.93z M27.09,33.56c-0.32,0-0.64-0.17-0.81-0.47
		c-0.26-0.45-0.1-1.02,0.35-1.27l21.29-12.17c0.45-0.26,1.02-0.1,1.27,0.35c0.26,0.45,0.1,1.02-0.35,1.27L27.55,33.44
		C27.41,33.52,27.25,33.56,27.09,33.56z M1.9,30.65c-0.33,0-0.64-0.17-0.82-0.48C0.84,29.72,1,29.15,1.45,28.9l1.66-0.93
		c0.45-0.25,1.02-0.09,1.27,0.36c0.25,0.45,0.09,1.02-0.36,1.27l-1.66,0.93C2.22,30.61,2.06,30.65,1.9,30.65z M44.05,29.63
		c-0.32,0-0.64-0.17-0.81-0.47c-0.26-0.45-0.1-1.02,0.35-1.27l4.6-2.62c0.45-0.26,1.02-0.1,1.27,0.35c0.26,0.45,0.1,1.02-0.35,1.27
		l-4.6,2.62C44.37,29.6,44.21,29.63,44.05,29.63z M6.77,27.87c-0.32,0-0.64-0.17-0.81-0.47c-0.26-0.45-0.1-1.02,0.35-1.27
		l22.08-12.63c0.45-0.26,1.02-0.1,1.27,0.35c0.26,0.45,0.1,1.02-0.35,1.27L7.23,27.75C7.08,27.83,6.93,27.87,6.77,27.87z
		 M17.84,27.3c-0.33,0-0.65-0.17-0.82-0.48c-0.25-0.45-0.09-1.02,0.36-1.27l1.57-0.88c0.45-0.25,1.02-0.09,1.27,0.36
		c0.25,0.45,0.09,1.02-0.36,1.27l-1.57,0.88C18.15,27.26,18,27.3,17.84,27.3z M1.35,25.19c-0.32,0-0.64-0.17-0.81-0.47
		c-0.26-0.45-0.1-1.02,0.35-1.27l11.47-6.56c0.45-0.26,1.02-0.1,1.27,0.35c0.26,0.45,0.1,1.02-0.35,1.27L1.81,25.06
		C1.67,25.15,1.51,25.19,1.35,25.19z M22.67,24.55c-0.32,0-0.64-0.17-0.81-0.47c-0.26-0.45-0.1-1.02,0.35-1.27l21.58-12.35
		c0.45-0.26,1.02-0.1,1.27,0.35c0.26,0.45,0.1,1.02-0.35,1.27L23.13,24.43C22.98,24.51,22.82,24.55,22.67,24.55z M2.54,18.73
		c-0.33,0-0.64-0.17-0.81-0.47c-0.26-0.45-0.1-1.02,0.35-1.27l2.2-1.25c0.45-0.25,1.02-0.1,1.27,0.35c0.26,0.45,0.1,1.02-0.35,1.27
		L3,18.61C2.85,18.69,2.69,18.73,2.54,18.73z M44.69,17.71c-0.33,0-0.64-0.17-0.81-0.48c-0.25-0.45-0.09-1.02,0.35-1.27l1.79-1.01
		c0.45-0.25,1.02-0.09,1.27,0.35c0.25,0.45,0.09,1.02-0.35,1.27l-1.79,1.01C45,17.67,44.85,17.71,44.69,17.71z M16.11,16.73
		c-0.32,0-0.64-0.17-0.81-0.47c-0.26-0.45-0.1-1.02,0.35-1.27l15.66-8.95c0.45-0.26,1.02-0.1,1.27,0.35
		c0.26,0.45,0.1,1.02-0.35,1.27l-15.66,8.95C16.43,16.69,16.27,16.73,16.11,16.73z M7.93,15.64c-0.32,0-0.64-0.17-0.81-0.47
		c-0.26-0.45-0.1-1.02,0.35-1.27L29.62,1.23c0.45-0.26,1.02-0.1,1.27,0.35c0.26,0.45,0.1,1.02-0.35,1.27L8.4,15.52
		C8.25,15.6,8.09,15.64,7.93,15.64z M32.28,13.27c-0.32,0-0.64-0.17-0.81-0.47c-0.26-0.45-0.1-1.02,0.35-1.27l8.54-4.88
		c0.45-0.26,1.02-0.1,1.27,0.35c0.26,0.45,0.1,1.02-0.35,1.27l-8.54,4.88C32.59,13.23,32.43,13.27,32.28,13.27z M7.3,10.22
		c-0.32,0-0.64-0.17-0.81-0.47C6.23,9.3,6.38,8.73,6.83,8.48l8.58-4.89c0.45-0.26,1.02-0.1,1.27,0.35s0.1,1.02-0.35,1.27L7.76,10.1
		C7.61,10.18,7.45,10.22,7.3,10.22z M34.93,5.96c-0.33,0-0.64-0.17-0.82-0.48c-0.25-0.45-0.09-1.02,0.36-1.27l1.39-0.78
		c0.45-0.25,1.02-0.09,1.27,0.36c0.25,0.45,0.09,1.02-0.36,1.27l-1.39,0.78C35.24,5.92,35.09,5.96,34.93,5.96z M19.16,3.44
		c-0.33,0-0.64-0.17-0.81-0.48c-0.25-0.45-0.09-1.02,0.36-1.27l1.41-0.79c0.45-0.25,1.02-0.09,1.27,0.36
		c0.25,0.45,0.09,1.02-0.36,1.27l-1.41,0.79C19.47,3.41,19.31,3.44,19.16,3.44z"/>
</g>
</svg>
