<svg width="1280" height="600" xmlns="http://www.w3.org/2000/svg">

 <g>
  <title>background</title>
  <rect fill="none" id="canvas_background" height="402" width="582" y="-1" x="-1"/>
 </g>
 <g>
  <title>Layer 1</title>
  <path id="svg_1" d="m1106.27,-0.26l-158.21,90.4c-2.7,1.47 -5.72,2.25 -8.79,2.29c-6.39,-0.01 -12.29,-3.43 -15.47,-8.98l0,0c-4.89,-8.42 -2.03,-19.2 6.39,-24.09c0.1,-0.06 0.2,-0.11 0.3,-0.17l104.04,-59.45l-121.55,0l-273.85,156.51c-8.55,4.81 -19.38,1.82 -24.26,-6.69l0,0c-4.89,-8.42 -2.03,-19.21 6.39,-24.09c0.1,-0.06 0.2,-0.11 0.3,-0.17l219.69,-125.56l-121.11,0l-237.1,135.69c-2.76,1.49 -5.84,2.28 -8.98,2.29c-6.39,-0.01 -12.29,-3.43 -15.47,-8.98c-4.89,-8.42 -2.03,-19.2 6.38,-24.09c0.1,-0.06 0.2,-0.12 0.3,-0.17l183.1,-104.74l-121.24,0l-56.31,32.13c-2.7,1.47 -5.72,2.25 -8.79,2.29c-6.39,-0.01 -12.29,-3.43 -15.48,-8.97l0,0c-4.95,-8.35 -2.19,-19.12 6.15,-24.07c0.11,-0.07 0.23,-0.13 0.34,-0.2l2.08,-1.18l-455.24,0l0,600l422.12,0c-7.8,-5.61 -9.76,-16.44 -4.31,-24.41c1.53,-2.25 3.56,-4.11 5.93,-5.45l105.46,-60.37c8.55,-4.85 19.41,-1.86 24.26,6.69c4.85,8.55 1.86,19.41 -6.69,24.26l-103.55,59.28l121.33,0l207.29,-118.51c8.55,-4.85 19.41,-1.86 24.26,6.69c4.85,8.55 1.86,19.41 -6.69,24.26l-153.15,87.56l121.44,0l336.81,-192.83c8.55,-4.85 19.41,-1.86 24.26,6.69c4.85,8.55 1.86,19.41 -6.69,24.26l-282.95,161.88l121.14,0l63.24,-36.17c8.55,-4.85 19.41,-1.86 24.26,6.69c4.85,8.55 1.86,19.41 -6.69,24.26l-9.12,5.22l258.02,0l0,-600l-173.59,0zm119.77,131.48c4.85,8.55 1.86,19.41 -6.69,24.26l-34.2,19.3c-2.64,1.63 -5.68,2.49 -8.79,2.48c-6.46,0.04 -12.41,-3.49 -15.48,-9.17l0,0c-4.76,-8.56 -1.79,-19.35 6.69,-24.26l34.2,-19.3c8.55,-4.85 19.41,-1.86 24.27,6.69zm-66.87,-92.47c8.55,-4.85 19.41,-1.86 24.26,6.69s1.86,19.41 -6.69,24.26l-412.28,235.95c-2.7,1.47 -5.72,2.25 -8.79,2.29c-6.39,-0.01 -12.29,-3.43 -15.48,-8.98c-4.89,-8.42 -2.03,-19.21 6.39,-24.09c0.1,-0.06 0.2,-0.11 0.3,-0.17l412.29,-235.95zm-294.22,58.08c8.55,-4.85 19.41,-1.86 24.26,6.69c4.85,8.55 1.86,19.41 -6.69,24.26l-421.84,241.3c-2.69,1.49 -5.71,2.28 -8.79,2.29c-6.39,-0.01 -12.29,-3.43 -15.48,-8.98l0,0c-4.89,-8.42 -2.03,-19.2 6.39,-24.09c0.1,-0.06 0.2,-0.11 0.3,-0.17l421.85,-241.3zm-162.97,244.55l-30,16.81c-2.61,1.51 -5.58,2.3 -8.6,2.29c-6.51,0.05 -12.52,-3.47 -15.66,-9.17l0,0c-4.79,-8.6 -1.71,-19.46 6.88,-24.26l30,-16.81c8.62,-4.76 19.47,-1.62 24.23,7c4.72,8.56 1.67,19.33 -6.85,24.14zm-339.99,-177.7c0.1,-0.06 0.2,-0.11 0.3,-0.17l42.03,-23.88c8.55,-4.85 19.41,-1.86 24.26,6.69c4.85,8.55 1.86,19.41 -6.69,24.26l-42.03,23.88c-2.7,1.47 -5.72,2.25 -8.79,2.29c-6.4,0.04 -12.33,-3.4 -15.48,-8.98c-4.87,-8.42 -2.01,-19.2 6.4,-24.09zm-29.12,147.51c-4.89,-8.42 -2.03,-19.2 6.38,-24.09c0.1,-0.06 0.2,-0.12 0.3,-0.17l219.14,-125.33c8.55,-4.85 19.41,-1.86 24.26,6.69c4.85,8.55 1.86,19.41 -6.69,24.26l-219.13,125.14c-2.63,1.66 -5.68,2.52 -8.79,2.48c-6.39,-0.01 -12.29,-3.43 -15.47,-8.98zm10.32,104.12l0,0c-4.62,-8.66 -1.48,-19.43 7.07,-24.26l31.71,-17.77c8.6,-4.8 19.46,-1.72 24.26,6.88c4.8,8.6 1.72,19.46 -6.88,24.26l-31.71,17.77c-2.68,1.51 -5.71,2.3 -8.79,2.29c-6.49,0 -12.48,-3.5 -15.66,-9.17zm49.86,102.6c-2.65,1.6 -5.7,2.39 -8.79,2.29c-6.39,-0.01 -12.29,-3.43 -15.48,-8.98l0,0c-4.89,-8.42 -2.03,-19.21 6.39,-24.09c0.1,-0.06 0.2,-0.11 0.3,-0.17l215.7,-123.42c8.55,-4.85 19.41,-1.86 24.26,6.69c4.85,8.55 1.86,19.41 -6.69,24.26l-215.69,123.42zm217.23,-13.94c-8.55,4.81 -19.38,1.82 -24.26,-6.69l0,0c-4.89,-8.42 -2.03,-19.2 6.39,-24.09c0.1,-0.06 0.2,-0.11 0.3,-0.17l515.07,-294.79c8.55,-4.85 19.41,-1.86 24.26,6.69c4.85,8.55 1.86,19.41 -6.69,24.26l-515.07,294.79zm238.62,-26.18c-8.55,4.81 -19.38,1.82 -24.26,-6.69l0,0.01c-4.89,-8.42 -2.03,-19.2 6.39,-24.09c0.1,-0.06 0.2,-0.11 0.3,-0.17l406.75,-232.51c8.55,-4.85 19.41,-1.86 24.26,6.69c4.85,8.55 1.86,19.41 -6.69,24.26l-406.75,232.5zm389.18,-1.72l-146.16,83.3c-8.55,4.81 -19.38,1.82 -24.26,-6.69l0,0c-4.89,-8.42 -2.03,-19.2 6.39,-24.09c0.1,-0.06 0.2,-0.11 0.3,-0.17l146.15,-83.3c8.55,-4.85 19.41,-1.86 24.26,6.69c4.86,8.54 1.86,19.41 -6.68,24.26zm22.73,-123.42l-87.88,50.06c-2.65,1.6 -5.7,2.39 -8.79,2.29c-6.39,-0.01 -12.29,-3.43 -15.48,-8.98c-4.89,-8.42 -2.03,-19.2 6.39,-24.09c0.1,-0.06 0.2,-0.11 0.3,-0.17l87.88,-50.06c8.55,-4.85 19.41,-1.86 24.26,6.69c4.86,8.54 1.87,19.41 -6.68,24.26z" fill="#42273c"/>
 </g>
</svg>