<?xml version="1.0" encoding="utf-8"?>
<!-- Generator: Adobe Illustrator 24.0.2, SVG Export Plug-In . SVG Version: 6.00 Build 0)  -->
<svg version="1.2" baseProfile="tiny" id="Ebene_1" xmlns="http://www.w3.org/2000/svg" xmlns:xlink="http://www.w3.org/1999/xlink"
	 x="0px" y="0px" viewBox="0 0 1280 600" xml:space="preserve">
<path fill="#F1F2F2" d="M1106.27-0.26L948.06,90.14c-2.7,1.47-5.72,2.25-8.79,2.29c-6.39-0.01-12.29-3.43-15.47-8.98v0
	c-4.89-8.42-2.03-19.2,6.39-24.09c0.1-0.06,0.2-0.11,0.3-0.17l104.04-59.45H912.98L639.13,156.25c-8.55,4.81-19.38,1.82-24.26-6.69
	l0,0c-4.89-8.42-2.03-19.21,6.39-24.09c0.1-0.06,0.2-0.11,0.3-0.17L841.25-0.26H720.14l-237.1,135.69
	c-2.76,1.49-5.84,2.28-8.98,2.29c-6.39-0.01-12.29-3.43-15.47-8.98c-4.89-8.42-2.03-19.2,6.38-24.09c0.1-0.06,0.2-0.12,0.3-0.17
	L648.37-0.26H527.13l-56.31,32.13c-2.7,1.47-5.72,2.25-8.79,2.29c-6.39-0.01-12.29-3.43-15.48-8.97l0,0
	c-4.95-8.35-2.19-19.12,6.15-24.07c0.11-0.07,0.23-0.13,0.34-0.2l2.08-1.18H-0.12v600H422c-7.8-5.61-9.76-16.44-4.31-24.41
	c1.53-2.25,3.56-4.11,5.93-5.45l105.46-60.37c8.55-4.85,19.41-1.86,24.26,6.69c4.85,8.55,1.86,19.41-6.69,24.26L443.1,599.74h121.33
	l207.29-118.51c8.55-4.85,19.41-1.86,24.26,6.69c4.85,8.55,1.86,19.41-6.69,24.26l-153.15,87.56h121.44l336.81-192.83
	c8.55-4.85,19.41-1.86,24.26,6.69c4.85,8.55,1.86,19.41-6.69,24.26L829.01,599.74h121.14l63.24-36.17
	c8.55-4.85,19.41-1.86,24.26,6.69c4.85,8.55,1.86,19.41-6.69,24.26l-9.12,5.22h258.02v-600H1106.27z M1226.04,131.22
	c4.85,8.55,1.86,19.41-6.69,24.26l-34.2,19.3c-2.64,1.63-5.68,2.49-8.79,2.48c-6.46,0.04-12.41-3.49-15.48-9.17l0,0
	c-4.76-8.56-1.79-19.35,6.69-24.26l34.2-19.3C1210.32,119.68,1221.18,122.67,1226.04,131.22z M1159.17,38.75
	c8.55-4.85,19.41-1.86,24.26,6.69s1.86,19.41-6.69,24.26L764.46,305.65c-2.7,1.47-5.72,2.25-8.79,2.29
	c-6.39-0.01-12.29-3.43-15.48-8.98c-4.89-8.42-2.03-19.21,6.39-24.09c0.1-0.06,0.2-0.11,0.3-0.17L1159.17,38.75z M864.95,96.83
	c8.55-4.85,19.41-1.86,24.26,6.69c4.85,8.55,1.86,19.41-6.69,24.26l-421.84,241.3c-2.69,1.49-5.71,2.28-8.79,2.29
	c-6.39-0.01-12.29-3.43-15.48-8.98v0c-4.89-8.42-2.03-19.2,6.39-24.09c0.1-0.06,0.2-0.11,0.3-0.17L864.95,96.83z M701.98,341.38
	l-30,16.81c-2.61,1.51-5.58,2.3-8.6,2.29c-6.51,0.05-12.52-3.47-15.66-9.17v0c-4.79-8.6-1.71-19.46,6.88-24.26l30-16.81
	c8.62-4.76,19.47-1.62,24.23,7C713.55,325.8,710.5,336.57,701.98,341.38z M361.99,163.68c0.1-0.06,0.2-0.11,0.3-0.17l42.03-23.88
	c8.55-4.85,19.41-1.86,24.26,6.69c4.85,8.55,1.86,19.41-6.69,24.26l-42.03,23.88c-2.7,1.47-5.72,2.25-8.79,2.29
	c-6.4,0.04-12.33-3.4-15.48-8.98C350.72,179.35,353.58,168.57,361.99,163.68z M332.87,311.19c-4.89-8.42-2.03-19.2,6.38-24.09
	c0.1-0.06,0.2-0.12,0.3-0.17L558.69,161.6c8.55-4.85,19.41-1.86,24.26,6.69c4.85,8.55,1.86,19.41-6.69,24.26L357.13,317.69
	c-2.63,1.66-5.68,2.52-8.79,2.48C341.95,320.16,336.05,316.74,332.87,311.19z M343.19,415.31L343.19,415.31
	c-4.62-8.66-1.48-19.43,7.07-24.26l31.71-17.77c8.6-4.8,19.46-1.72,24.26,6.88c4.8,8.6,1.72,19.46-6.88,24.26l-31.71,17.77
	c-2.68,1.51-5.71,2.3-8.79,2.29C352.36,424.48,346.37,420.98,343.19,415.31z M393.05,517.91c-2.65,1.6-5.7,2.39-8.79,2.29
	c-6.39-0.01-12.29-3.43-15.48-8.98l0,0c-4.89-8.42-2.03-19.21,6.39-24.09c0.1-0.06,0.2-0.11,0.3-0.17l215.7-123.42
	c8.55-4.85,19.41-1.86,24.26,6.69c4.85,8.55,1.86,19.41-6.69,24.26L393.05,517.91z M610.28,503.97c-8.55,4.81-19.38,1.82-24.26-6.69
	h0c-4.89-8.42-2.03-19.2,6.39-24.09c0.1-0.06,0.2-0.11,0.3-0.17l515.07-294.79c8.55-4.85,19.41-1.86,24.26,6.69
	c4.85,8.55,1.86,19.41-6.69,24.26L610.28,503.97z M848.9,477.79c-8.55,4.81-19.38,1.82-24.26-6.69l0,0.01
	c-4.89-8.42-2.03-19.2,6.39-24.09c0.1-0.06,0.2-0.11,0.3-0.17l406.75-232.51c8.55-4.85,19.41-1.86,24.26,6.69
	c4.85,8.55,1.86,19.41-6.69,24.26L848.9,477.79z M1238.08,476.07l-146.16,83.3c-8.55,4.81-19.38,1.82-24.26-6.69l0,0
	c-4.89-8.42-2.03-19.2,6.39-24.09c0.1-0.06,0.2-0.11,0.3-0.17l146.15-83.3c8.55-4.85,19.41-1.86,24.26,6.69
	C1249.62,460.35,1246.62,471.22,1238.08,476.07z M1260.81,352.65l-87.88,50.06c-2.65,1.6-5.7,2.39-8.79,2.29
	c-6.39-0.01-12.29-3.43-15.48-8.98c-4.89-8.42-2.03-19.2,6.39-24.09c0.1-0.06,0.2-0.11,0.3-0.17l87.88-50.06
	c8.55-4.85,19.41-1.86,24.26,6.69C1272.35,336.93,1269.36,347.8,1260.81,352.65z"/>
</svg>
