<?xml version="1.0" encoding="utf-8"?>
<!-- Generator: Adobe Illustrator 23.0.1, SVG Export Plug-In . SVG Version: 6.00 Build 0)  -->
<svg version="1.1" id="Layer_2" xmlns="http://www.w3.org/2000/svg" xmlns:xlink="http://www.w3.org/1999/xlink" x="0px" y="0px"
	 viewBox="0 0 1500 1500" style="enable-background:new 0 0 1500 1500;" xml:space="preserve">
<style type="text/css">
	.st0{fill:#F3136D;}
</style>
<g>
	<g>
		<path class="st0" d="M951.63,326.73c-1.04,1.35-0.69,2.99,0.8,3.64c46.25,20.55,96.03,41.12,148.47,65.99
			c0.49,0.23,1.02,0.36,1.54,0.39c1.25,0.08,2.47-0.41,3.09-1.34c0.88-1.32,0.25-3.05-1.43-3.85
			c-52.3-24.9-101.88-45.51-147.91-66.1C954.71,324.81,952.67,325.38,951.63,326.73z"/>
		<path class="st0" d="M947.63,321.65c-14.16-6.34-28.02-12.67-41.61-19.01c-1.4-0.66-3.44-0.09-4.55,1.27
			c-1.12,1.36-0.87,3,0.54,3.65c13.66,6.34,27.59,12.66,41.82,18.99c0.43,0.19,0.91,0.28,1.4,0.27c1.18-0.02,2.41-0.59,3.15-1.54
			C949.43,323.93,949.09,322.31,947.63,321.65z"/>
		<path class="st0" d="M798.03,256.37c30.18,15.6,61.64,31.37,94.67,46.85c0.41,0.19,0.88,0.28,1.36,0.27
			c1.16-0.02,2.4-0.59,3.19-1.55c1.12-1.36,0.89-2.99-0.5-3.64c-32.86-15.48-64.14-31.2-94.14-46.64c-1.27-0.65-3.33-0.13-4.6,1.16
			C796.74,254.12,796.75,255.71,798.03,256.37z"/>
		<path class="st0" d="M1031.92,345.37c7.3,3.24,14.68,6.53,22.13,9.87c0.47,0.21,0.98,0.32,1.49,0.33
			c1.22,0.03,2.44-0.49,3.11-1.42c0.94-1.32,0.41-2.97-1.17-3.69c-7.42-3.35-14.77-6.63-22.04-9.88c-1.55-0.69-3.6-0.18-4.57,1.14
			C1029.88,343.05,1030.35,344.68,1031.92,345.37z"/>
		<path class="st0" d="M932.98,301c28.62,13.28,58.52,26.5,89.88,40.38c0.46,0.2,0.95,0.3,1.45,0.3c1.21,0.01,2.43-0.52,3.12-1.46
			c0.98-1.32,0.51-2.95-1.03-3.64c-31.21-13.88-60.97-27.13-89.43-40.39c-1.4-0.65-3.43-0.11-4.54,1.21
			C931.32,298.73,931.56,300.34,932.98,301z"/>
		<path class="st0" d="M858.92,265.47c20.89,10.38,42.43,20.79,64.73,31.18c0.41,0.19,0.88,0.28,1.36,0.27
			c1.16-0.01,2.4-0.56,3.19-1.5c1.11-1.33,0.88-2.93-0.51-3.58c-22.18-10.38-43.59-20.77-64.37-31.08
			c-1.31-0.65-3.35-0.13-4.57,1.17C857.53,263.23,857.61,264.82,858.92,265.47z"/>
		<path class="st0" d="M1093.05,408.2c-52.77-24.78-103-45.2-149.77-65.64c-1.5-0.65-3.54-0.06-4.56,1.32
			c-1.02,1.39-0.63,3.03,0.88,3.69c46.98,20.38,97.38,40.74,150.28,65.47c0.5,0.23,1.03,0.36,1.55,0.39
			c1.26,0.07,2.48-0.43,3.09-1.37C1095.39,410.73,1094.73,409,1093.05,408.2z"/>
		<path class="st0" d="M793.97,275.59c-1.22,1.38-1.14,3.05,0.18,3.73c42.85,22.07,88.15,43.44,136.73,64.47
			c0.44,0.19,0.92,0.27,1.42,0.26c1.18-0.03,2.42-0.62,3.14-1.6c1.02-1.38,0.65-3.03-0.84-3.68
			c-48.37-21.09-93.43-42.5-136.04-64.46C797.24,273.64,795.19,274.21,793.97,275.59z"/>
		<path class="st0" d="M746.21,254.17c12.85,6.86,25.93,13.77,39.24,20.66c0.38,0.2,0.83,0.29,1.3,0.28
			c1.13-0.02,2.41-0.59,3.28-1.56c1.22-1.38,1.17-3.03-0.13-3.7c-13.24-6.85-26.24-13.7-39.01-20.48c-1.25-0.66-3.32-0.14-4.62,1.18
			C744.97,251.87,744.95,253.5,746.21,254.17z"/>
		<path class="st0" d="M1098.27,413.84c-0.87,1.33-0.2,3.07,1.49,3.88c5.82,2.79,11.67,5.63,17.53,8.55
			c0.5,0.25,1.03,0.39,1.56,0.44c1.27,0.1,2.47-0.36,3.08-1.3c0.85-1.33,0.17-3.1-1.53-3.95c-5.84-2.92-11.67-5.77-17.49-8.56
			C1101.22,412.08,1099.15,412.51,1098.27,413.84z"/>
		<path class="st0" d="M1127.23,431.27c4.57,2.33,9.14,4.7,13.72,7.11c0.5,0.26,1.04,0.43,1.56,0.48c1.26,0.14,2.47-0.3,3.06-1.23
			c0.84-1.32,0.14-3.13-1.57-4.04c-4.57-2.42-9.13-4.8-13.69-7.13c-1.7-0.87-3.78-0.5-4.64,0.83
			C1124.83,428.62,1125.52,430.4,1127.23,431.27z"/>
		<path class="st0" d="M1132.79,453.97c1.27,0.13,2.48-0.31,3.07-1.25c0.84-1.33,0.12-3.14-1.59-4.04
			c-45.27-23.65-90-42.85-132.29-60.7c-1.61-0.68-3.67-0.11-4.59,1.27c-0.93,1.38-0.37,3.05,1.25,3.72
			c42.42,17.78,87.26,36.94,132.6,60.52C1131.73,453.75,1132.27,453.91,1132.79,453.97z"/>
		<path class="st0" d="M780.21,291.68c-1.19,1.43-1.07,3.16,0.28,3.85c63.61,32.83,132.46,62.14,208.77,93.53
			c0.47,0.2,0.98,0.29,1.49,0.28c1.23-0.02,2.44-0.6,3.1-1.57c0.93-1.38,0.38-3.05-1.21-3.72c-76.06-31.5-144.59-60.98-207.86-93.73
			C783.45,289.64,781.39,290.24,780.21,291.68z"/>
		<path class="st0" d="M705.71,255.73c21.36,11.74,43.31,23.58,65.92,35.25c0.39,0.2,0.84,0.29,1.32,0.28
			c1.13-0.03,2.41-0.63,3.25-1.64c1.19-1.43,1.09-3.14-0.23-3.83c-22.49-11.63-44.32-23.39-65.54-35c-1.25-0.68-3.32-0.14-4.63,1.21
			C704.49,253.37,704.46,255.04,705.71,255.73z"/>
		<path class="st0" d="M1139.68,454.74c-0.83,1.33-0.12,3.14,1.6,4.07c5.91,3.17,11.82,6.42,17.71,9.76
			c0.5,0.28,1.04,0.46,1.56,0.54c1.26,0.18,2.45-0.23,3.04-1.16c0.83-1.32,0.1-3.18-1.6-4.16c-5.88-3.35-11.77-6.61-17.68-9.78
			C1142.59,453.08,1140.51,453.42,1139.68,454.74z"/>
		<path class="st0" d="M736.25,292.53c-1.2,1.48-1.09,3.25,0.24,3.95c49.86,26.39,102.7,51.07,159.59,74.72
			c0.45,0.18,0.93,0.26,1.43,0.24c1.19-0.06,2.4-0.69,3.1-1.71c0.99-1.44,0.56-3.13-0.95-3.77
			c-56.67-23.76-109.27-48.53-158.85-74.84C739.49,290.43,737.44,291.05,736.25,292.53z"/>
		<path class="st0" d="M669.19,259.65c19.39,10.94,39.23,21.93,59.59,32.76c0.39,0.2,0.84,0.3,1.31,0.28
			c1.13-0.03,2.4-0.66,3.25-1.7c1.2-1.47,1.11-3.23-0.2-3.93c-20.24-10.79-39.97-21.7-59.24-32.53c-1.25-0.7-3.32-0.14-4.63,1.27
			C667.96,257.21,667.93,258.94,669.19,259.65z"/>
		<path class="st0" d="M1059.4,439.07c0.5,0.23,1.04,0.34,1.56,0.36c1.26,0.04,2.47-0.49,3.08-1.45c0.86-1.36,0.17-3.09-1.52-3.85
			c-54.13-24.18-105.72-44.16-154.01-64.44c-1.52-0.64-3.55,0.01-4.53,1.46c-0.98,1.45-0.54,3.13,0.99,3.77
			C953.44,395.09,1005.16,414.98,1059.4,439.07z"/>
		<path class="st0" d="M1126.83,468.21c-0.83,1.34-0.1,3.15,1.63,4.06c19.54,10.24,39.07,21.32,58.11,33.44
			c0.49,0.32,1.02,0.52,1.53,0.62c1.23,0.24,2.4-0.11,2.97-1.04c0.8-1.3,0.1-3.24-1.59-4.32c-19.01-12.16-38.51-23.28-58.02-33.55
			C1129.73,466.51,1127.65,466.88,1126.83,468.21z"/>
		<path class="st0" d="M1120.47,467.78c1.27,0.12,2.47-0.34,3.06-1.28c0.83-1.34,0.1-3.15-1.62-4.03
			c-16.56-8.48-33.11-16.39-49.47-23.86c-1.7-0.78-3.79-0.3-4.64,1.06c-0.86,1.36-0.16,3.1,1.55,3.87
			c16.4,7.45,32.96,15.32,49.55,23.78C1119.4,467.58,1119.94,467.73,1120.47,467.78z"/>
		<path class="st0" d="M575.6,281.91c9.33,5.57,18.73,11.12,28.22,16.64c0.39,0.22,0.83,0.32,1.29,0.31
			c1.12-0.04,2.36-0.71,3.19-1.84c1.17-1.6,1.09-3.5-0.21-4.25c-9.44-5.49-18.79-11.02-28.08-16.56c-1.28-0.76-3.31-0.11-4.53,1.46
			C574.26,279.24,574.32,281.15,575.6,281.91z"/>
		<path class="st0" d="M861.01,420.78c1.19-0.1,2.36-0.79,2.99-1.87c0.89-1.52,0.36-3.25-1.19-3.85
			c-48.56-18.82-94.57-38.32-138.53-59.81c-1.41-0.69-3.39,0.06-4.42,1.67c-1.03,1.61-0.73,3.48,0.69,4.16
			c44.15,21.42,90.33,40.8,139.02,59.49C860.02,420.77,860.52,420.83,861.01,420.78z"/>
		<path class="st0" d="M927.75,446.35c0.48,0.18,0.99,0.25,1.5,0.21c1.21-0.08,2.4-0.73,2.99-1.78c0.85-1.48,0.22-3.17-1.41-3.79
			c-20.06-7.59-39.71-14.99-58.95-22.42c-1.56-0.61-3.55,0.14-4.45,1.66c-0.89,1.52-0.34,3.24,1.23,3.84
			C887.96,431.46,907.66,438.81,927.75,446.35z"/>
		<path class="st0" d="M1133.29,535.58c1.26,0.16,2.44-0.27,3-1.23c0.79-1.35,0.03-3.23-1.7-4.19
			c-65.36-35.98-131.57-61.64-192.91-85.04c-1.64-0.62-3.66,0.06-4.51,1.54c-0.85,1.48-0.2,3.17,1.44,3.79
			c61.46,23.25,127.71,48.8,193.11,84.62C1132.24,535.34,1132.77,535.51,1133.29,535.58z"/>
		<path class="st0" d="M701.77,344.06c-1.38-0.7-3.37,0.03-4.43,1.65c-1.07,1.62-0.79,3.51,0.6,4.21c4.77,2.41,9.57,4.8,14.39,7.17
			c0.41,0.2,0.88,0.28,1.35,0.25c1.14-0.08,2.33-0.79,3.07-1.93c1.03-1.61,0.75-3.47-0.65-4.17
			C711.29,348.87,706.52,346.47,701.77,344.06z"/>
		<path class="st0" d="M610.77,298.45c-1.17,1.6-1.06,3.52,0.25,4.27c25.59,14.77,51.82,29.24,78.85,43.09
			c0.4,0.21,0.87,0.29,1.34,0.26c1.13-0.07,2.34-0.78,3.09-1.92c1.07-1.62,0.82-3.5-0.56-4.21c-26.9-13.86-53.02-28.32-78.48-43.03
			C613.96,296.17,611.94,296.85,610.77,298.45z"/>
		<path class="st0" d="M1141.8,537.43c-0.79,1.35-0.03,3.23,1.7,4.22c28.42,16.23,56.28,34.51,81.77,54.93
			c0.45,0.36,0.94,0.62,1.41,0.77c1.14,0.35,2.21,0.08,2.74-0.81c0.74-1.27,0.12-3.32-1.42-4.56
			c-25.41-20.53-53.24-38.89-81.64-55.19C1144.63,535.78,1142.59,536.08,1141.8,537.43z"/>
		<path class="st0" d="M691.08,317.63c-1.13,1.58-0.95,3.45,0.4,4.16c35.51,18.85,72.41,36.71,110.96,53.49
			c0.43,0.19,0.91,0.26,1.39,0.22c1.16-0.08,2.36-0.77,3.06-1.86c0.99-1.54,0.62-3.31-0.84-3.95
			c-38.4-16.85-75.14-34.77-110.48-53.61C694.23,315.36,692.22,316.05,691.08,317.63z"/>
		<path class="st0" d="M1042.19,465.24c-81.85-35.01-157.89-61.27-227.6-91.83c-1.47-0.64-3.47,0.09-4.46,1.63
			c-0.99,1.54-0.59,3.31,0.88,3.95c69.97,30.4,146.23,56.46,228.17,91.32c0.5,0.22,1.03,0.32,1.56,0.33
			c1.26,0.02,2.46-0.54,3.05-1.52C1044.62,467.72,1043.91,465.98,1042.19,465.24z"/>
		<path class="st0" d="M1048.99,471.38c-0.83,1.39-0.1,3.14,1.63,3.89c55.04,24.19,112.86,53.6,164.3,91.96
			c0.47,0.35,0.97,0.59,1.45,0.73c1.17,0.32,2.28,0.03,2.82-0.88c0.77-1.28,0.11-3.3-1.49-4.5
			c-51.31-38.54-109.13-68.06-164.09-92.35C1051.88,469.47,1049.82,469.98,1048.99,471.38z"/>
		<path class="st0" d="M683.61,317.6c0.39,0.22,0.85,0.3,1.32,0.28c1.13-0.05,2.37-0.73,3.17-1.84c1.14-1.58,0.98-3.43-0.35-4.15
			c-4.59-2.47-9.16-4.96-13.7-7.45c-1.32-0.73-3.34-0.05-4.51,1.52c-1.16,1.57-1.03,3.44,0.31,4.17
			C674.41,312.63,679,315.12,683.61,317.6z"/>
		<path class="st0" d="M604.58,272.97c4.3,2.52,8.6,5.04,12.93,7.55c0.38,0.22,0.81,0.32,1.28,0.31c1.12-0.02,2.39-0.67,3.26-1.76
			c1.23-1.54,1.21-3.38-0.07-4.12c-4.3-2.5-8.59-5-12.86-7.5c-1.27-0.75-3.31-0.12-4.57,1.4
			C603.28,270.37,603.3,272.23,604.58,272.97z"/>
		<path class="st0" d="M624.61,284.64c12.35,7.13,24.84,14.23,37.52,21.24c0.39,0.21,0.84,0.31,1.31,0.29
			c1.13-0.04,2.37-0.71,3.2-1.82c1.17-1.57,1.05-3.43-0.26-4.16c-12.61-6.99-25.04-14.06-37.32-21.15c-1.27-0.74-3.32-0.1-4.55,1.44
			C623.26,282.03,623.31,283.9,624.61,284.64z"/>
		<path class="st0" d="M1089.72,472.74c1.27,0.08,2.48-0.41,3.06-1.38c0.83-1.36,0.1-3.14-1.63-3.97
			c-65.21-31.01-127.97-54.36-185.94-77.97c-1.54-0.63-3.57,0.05-4.52,1.52c-0.95,1.46-0.45,3.16,1.1,3.79
			c58.16,23.47,121.06,46.7,186.35,77.6C1088.65,472.57,1089.2,472.71,1089.72,472.74z"/>
		<path class="st0" d="M1096.61,473.21c-0.83,1.36-0.09,3.15,1.65,3.99c35.15,17.14,70.76,36.79,104.18,59.92
			c0.48,0.34,0.99,0.56,1.5,0.68c1.2,0.29,2.35-0.04,2.9-0.95c0.79-1.3,0.1-3.27-1.55-4.42c-33.36-23.23-68.93-42.94-104.04-60.15
			C1099.52,471.42,1097.43,471.84,1096.61,473.21z"/>
		<path class="st0" d="M894.21,391.31c1.19-0.08,2.4-0.72,3.07-1.76c0.95-1.47,0.48-3.16-1.06-3.79
			c-48.86-19.84-94.83-40.13-138.55-62.02c-1.37-0.69-3.39,0-4.51,1.53c-1.11,1.53-0.89,3.34,0.49,4.03
			c43.93,21.87,90.1,42.06,139.12,61.79C893.21,391.27,893.71,391.34,894.21,391.31z"/>
		<path class="st0" d="M635.68,265.48c20.74,11.97,41.95,23.93,63.71,35.68c0.39,0.21,0.84,0.3,1.31,0.29
			c1.13-0.04,2.38-0.68,3.22-1.76c1.18-1.53,1.07-3.33-0.24-4.05c-21.65-11.71-42.73-23.61-63.36-35.47
			c-1.26-0.72-3.32-0.13-4.61,1.33C634.43,262.97,634.42,264.76,635.68,265.48z"/>
		<path class="st0" d="M706.45,301.04c-1.18,1.53-1.05,3.35,0.28,4.06c12.77,6.82,25.73,13.56,38.89,20.18
			c0.4,0.2,0.86,0.28,1.34,0.26c1.14-0.05,2.38-0.72,3.17-1.8c1.12-1.54,0.92-3.33-0.45-4.02c-13.1-6.62-25.99-13.35-38.69-20.16
			C709.66,298.86,707.63,299.52,706.45,301.04z"/>
		<path class="st0" d="M548.56,292.17c13.92,8.41,27.97,16.77,42.22,25.02c0.39,0.23,0.83,0.33,1.3,0.3
			c1.11-0.04,2.33-0.75,3.12-1.91c1.12-1.65,0.96-3.6-0.35-4.36c-14.18-8.23-28.17-16.55-42.04-24.92c-1.29-0.77-3.29-0.1-4.46,1.52
			C547.16,289.43,547.26,291.39,548.56,292.17z"/>
		<path class="st0" d="M792.85,409.15c-1.5-0.62-3.46,0.17-4.37,1.77c-0.91,1.59-0.42,3.38,1.09,3.99
			c19.61,7.95,39.6,15.64,60.02,23.26c0.46,0.17,0.95,0.23,1.45,0.18c1.18-0.12,2.34-0.82,2.95-1.91c0.86-1.54,0.29-3.27-1.28-3.86
			C832.34,424.89,812.4,417.14,792.85,409.15z"/>
		<path class="st0" d="M1077.7,527.51c1.27,0.07,2.45-0.44,3-1.43c0.78-1.39,0-3.2-1.74-4.03
			c-75.77-35.73-149.33-60.49-217.11-86.03c-1.58-0.59-3.54,0.18-4.41,1.72c-0.86,1.54-0.27,3.27,1.31,3.85
			c67.95,25.36,141.58,49.95,217.37,85.52C1076.63,527.34,1077.17,527.48,1077.7,527.51z"/>
		<path class="st0" d="M1090.56,527.63c-1.75-0.86-3.8-0.42-4.59,0.98c-0.78,1.39,0,3.2,1.75,4.06c11.7,5.7,23.41,11.67,35.04,17.96
			c0.51,0.28,1.05,0.44,1.57,0.5c1.25,0.15,2.44-0.3,2.98-1.27c0.78-1.37,0.01-3.24-1.73-4.19
			C1113.97,539.36,1102.26,533.35,1090.56,527.63z"/>
		<path class="st0" d="M768.78,399.09c-1.47-0.63-3.44,0.16-4.37,1.77c-0.93,1.61-0.49,3.43,1,4.06c5.1,2.16,10.22,4.29,15.37,6.41
			c0.44,0.18,0.92,0.24,1.4,0.19c1.16-0.11,2.31-0.84,2.96-1.97c0.91-1.59,0.45-3.39-1.05-4.01
			C778.96,403.41,773.86,401.26,768.78,399.09z"/>
		<path class="st0" d="M758.19,401.44c1.15-0.11,2.31-0.84,2.97-1.98c0.93-1.61,0.5-3.43-0.97-4.07
			c-55.63-24.02-108.11-51.14-158.08-79.97c-1.32-0.76-3.3-0.05-4.42,1.6c-1.12,1.65-0.94,3.61,0.39,4.37
			c50.19,28.9,102.9,55.94,158.71,79.83C757.23,401.43,757.71,401.49,758.19,401.44z"/>
		<path class="st0" d="M1132.82,552.9c-0.78,1.36-0.01,3.25,1.72,4.22c34.27,19.25,67.83,41.45,97.6,66.61
			c0.44,0.37,0.9,0.64,1.36,0.79c1.1,0.37,2.14,0.12,2.66-0.77c0.73-1.25,0.12-3.32-1.37-4.59c-29.65-25.3-63.19-47.61-97.44-66.95
			C1135.65,551.22,1133.6,551.55,1132.82,552.9z"/>
		<path class="st0" d="M523.3,303.53c4.78,2.92,9.58,5.84,14.39,8.74c0.39,0.23,0.83,0.34,1.28,0.32c1.1-0.03,2.3-0.74,3.08-1.92
			c1.1-1.67,0.95-3.65-0.35-4.44c-4.79-2.9-9.57-5.8-14.34-8.71c-1.3-0.79-3.26-0.1-4.39,1.56
			C521.85,300.74,522,302.74,523.3,303.53z"/>
		<path class="st0" d="M755.16,423.45c39.4,16.21,80.27,31.02,122.81,46.1c0.48,0.17,0.98,0.22,1.48,0.17
			c1.19-0.12,2.33-0.83,2.91-1.91c0.81-1.53,0.15-3.24-1.47-3.82c-42.48-15.19-83.24-30.13-122.52-46.44
			c-1.49-0.62-3.43,0.19-4.32,1.83C753.16,421.01,753.66,422.84,755.16,423.45z"/>
		<path class="st0" d="M890.32,467.37c-1.62-0.58-3.6,0.18-4.4,1.72c-0.81,1.53-0.13,3.24,1.5,3.82
			c17.27,6.13,34.82,12.34,52.61,18.81c0.49,0.18,1.01,0.24,1.52,0.21c1.22-0.09,2.38-0.75,2.93-1.8c0.78-1.48,0.06-3.2-1.62-3.81
			C925.08,479.8,907.56,473.54,890.32,467.37z"/>
		<path class="st0" d="M949.54,491.98c-0.78,1.48-0.04,3.2,1.65,3.82c93.93,34.42,202.63,80.46,286.58,154.4
			c0.42,0.38,0.88,0.65,1.32,0.81c1.07,0.38,2.09,0.14,2.59-0.74c0.71-1.25,0.13-3.32-1.31-4.61
			C1156.73,571.27,1047.8,525.06,954,490.42C952.32,489.79,950.31,490.5,949.54,491.98z"/>
		<path class="st0" d="M636.64,360.34c-1.38-0.73-3.32,0.04-4.33,1.73c-1.01,1.69-0.69,3.65,0.69,4.39
			c36.46,19.22,74.22,37.03,113.43,53.38c0.44,0.18,0.91,0.24,1.39,0.19c1.15-0.12,2.29-0.87,2.92-2.02
			c0.89-1.63,0.41-3.46-1.07-4.09C710.57,397.47,672.96,379.58,636.64,360.34z"/>
		<path class="st0" d="M548.4,310.27c-1.3-0.78-3.27-0.07-4.37,1.6c-1.1,1.67-0.93,3.67,0.39,4.46
			c11.22,6.73,22.54,13.4,33.97,19.98c0.39,0.23,0.84,0.32,1.3,0.3c1.11-0.05,2.29-0.78,3.04-1.96c1.07-1.69,0.85-3.67-0.48-4.44
			C570.84,323.63,559.57,316.97,548.4,310.27z"/>
		<path class="st0" d="M589.62,334.44c-1.33-0.77-3.29-0.02-4.35,1.66c-1.05,1.69-0.83,3.68,0.52,4.45
			c12.89,7.34,25.94,14.57,39.15,21.63c0.4,0.22,0.86,0.3,1.32,0.27c1.11-0.07,2.29-0.81,3-2c1.01-1.69,0.72-3.65-0.65-4.39
			C615.45,349,602.46,341.77,589.62,334.44z"/>
		<path class="st0" d="M852.8,481.6c60.39,20.99,124.5,42.07,190.23,70.81c0.51,0.22,1.05,0.34,1.57,0.35
			c1.26,0.02,2.41-0.54,2.94-1.55c0.74-1.43-0.06-3.22-1.81-3.99c-65.75-28.9-129.83-50.11-190.12-71.27
			c-1.6-0.57-3.55,0.25-4.32,1.81C850.51,479.32,851.18,481.04,852.8,481.6z"/>
		<path class="st0" d="M1051.39,552.92c-0.75,1.43,0.07,3.23,1.82,4.01c66.47,29.79,135.2,69.3,189.35,119.28
			c0.42,0.38,0.85,0.66,1.28,0.82c1.03,0.39,2.03,0.16,2.52-0.72c0.7-1.25,0.14-3.32-1.26-4.63
			c-53.89-50.28-122.72-89.98-189.19-119.93C1054.16,550.97,1052.13,551.49,1051.39,552.92z"/>
		<path class="st0" d="M499.76,315.89c76.79,47.86,158.7,92.43,248.05,127.26c0,0,0,0,0.01,0c14.52,5.76,29.22,11.35,44.13,16.83
			c0.02,0,0.03,0.01,0.05,0.01c2.98,1.1,5.97,2.19,8.97,3.28c0.02,0.01,0.04,0.02,0.06,0.03c13.96,5.07,28.08,10.06,42.4,15.04
			c0.47,0.17,0.97,0.21,1.46,0.15c1.18-0.14,2.3-0.87,2.85-1.98c0.78-1.57,0.12-3.29-1.48-3.86c-11.06-3.89-22.01-7.78-32.84-11.71
			c-0.03-0.01-0.05-0.03-0.08-0.04c-113.69-39.66-215.64-91.93-309.68-151.12c-1.31-0.8-3.24-0.1-4.31,1.59
			C498.26,313.06,498.46,315.08,499.76,315.89z"/>
		<path class="st0" d="M1204.48,701.8c-1.52-1.19-3.34-1.08-4.05,0.24c-0.72,1.32-0.05,3.35,1.47,4.54
			c15.95,12.44,31.06,25.53,45.04,39.08c0.39,0.38,0.81,0.65,1.22,0.81c0.98,0.39,1.92,0.15,2.39-0.74
			c0.67-1.25,0.14-3.32-1.18-4.62C1235.47,727.48,1220.4,714.31,1204.48,701.8z"/>
		<path class="st0" d="M992.43,591.48c1.22-0.05,2.32-0.68,2.81-1.74c0.67-1.5-0.18-3.26-1.91-3.94
			c-54.16-21.21-107.17-37.87-158.14-54.23c-1.63-0.53-3.5,0.35-4.17,1.94c-0.67,1.6,0.11,3.31,1.74,3.83
			c51.01,16.24,104.02,32.78,158.13,53.87C991.4,591.42,991.92,591.5,992.43,591.48z"/>
		<path class="st0" d="M776.55,519.19c15.4,5.11,30.98,10.11,46.72,15.13c0.48,0.15,0.97,0.19,1.46,0.11
			c1.15-0.18,2.22-0.94,2.7-2.07c0.67-1.6-0.1-3.32-1.72-3.84c-15.73-5.06-31.29-10.11-46.67-15.25c-1.58-0.53-3.44,0.36-4.13,2
			C774.23,516.91,774.96,518.66,776.55,519.19z"/>
		<path class="st0" d="M1020.4,602.83c1.23-0.02,2.34-0.62,2.82-1.66c0.68-1.48-0.17-3.27-1.91-4c-5.96-2.51-11.92-4.96-17.88-7.36
			c-1.74-0.7-3.69-0.05-4.36,1.44c-0.68,1.49,0.18,3.26,1.92,3.95c5.95,2.38,11.9,4.82,17.86,7.32
			C1019.36,602.74,1019.9,602.84,1020.4,602.83z"/>
		<path class="st0" d="M1196.12,701.76c1.12,0.29,2.18-0.04,2.68-0.98c0.71-1.33,0.05-3.36-1.49-4.53
			c-50.85-38.81-108.81-70.12-165.88-94.76c-1.74-0.76-3.71-0.16-4.39,1.31c-0.68,1.48,0.17,3.27,1.91,4.02
			c57.02,24.51,114.86,55.66,165.77,94.24C1195.18,701.41,1195.65,701.64,1196.12,701.76z"/>
		<path class="st0" d="M438.55,357.18c63.66,40.9,130.93,79.84,202.91,111.07c0.01,0,0.02,0,0.03,0.01
			c40.23,17.63,81.73,33.06,124.54,47.42c0.46,0.15,0.95,0.19,1.43,0.12c1.14-0.18,2.2-0.96,2.69-2.12c0.69-1.64-0.03-3.4-1.61-3.94
			c-63.42-21.36-123.98-45.56-181.63-74.79c-0.01,0-0.01,0-0.01,0c-50.61-25.47-98.61-54.33-145.03-83.95
			c-1.32-0.84-3.14-0.14-4.06,1.57C436.89,354.26,437.22,356.34,438.55,357.18z"/>
		<path class="st0" d="M1052.26,596.6c1.24,0.04,2.37-0.52,2.88-1.55c0.71-1.45-0.13-3.27-1.87-4.07
			c-45.85-20.93-91.59-37.73-135.85-52.85c-1.68-0.58-3.61,0.2-4.31,1.74c-0.69,1.54,0.11,3.24,1.8,3.82
			c44.27,15.02,89.97,31.72,135.79,52.54C1051.22,596.47,1051.75,596.59,1052.26,596.6z"/>
		<path class="st0" d="M783,496.62c-0.73,1.63-0.03,3.39,1.55,3.93c38.99,13.32,79.2,25.97,120.57,39.84
			c0.49,0.17,1.01,0.21,1.5,0.16c1.2-0.13,2.29-0.84,2.79-1.93c0.69-1.54-0.1-3.25-1.78-3.81c-41.36-13.97-81.52-26.72-120.45-40.15
			C785.6,494.12,783.73,494.99,783,496.62z"/>
		<path class="st0" d="M482.9,354.53c-0.95,1.73-0.63,3.79,0.7,4.61c88.76,55.66,185.46,102.61,290.48,137.81
			c0.46,0.16,0.95,0.19,1.43,0.13c1.15-0.16,2.22-0.95,2.74-2.1c0.73-1.63,0.05-3.4-1.52-3.95
			c-104.85-35.49-201.16-82.67-289.69-138.15C485.71,352.07,483.86,352.8,482.9,354.53z"/>
		<path class="st0" d="M1063.45,595.7c-1.74-0.82-3.73-0.31-4.44,1.14c-0.71,1.45,0.13,3.27,1.87,4.09
			c29.23,13.68,58.37,29.1,86.42,46.52c0.49,0.3,1,0.5,1.5,0.58c1.2,0.2,2.32-0.21,2.83-1.18c0.73-1.37-0.02-3.33-1.69-4.37
			C1121.87,624.96,1092.7,609.46,1063.45,595.7z"/>
		<path class="st0" d="M1209.89,688.03c-0.72,1.31-0.07,3.35,1.44,4.55c12.23,9.83,23.94,20.07,34.92,30.61
			c0.4,0.38,0.82,0.66,1.23,0.82c1,0.39,1.95,0.16,2.43-0.72c0.67-1.25,0.15-3.32-1.2-4.63c-10.93-10.61-22.58-20.9-34.79-30.8
			C1212.42,686.64,1210.61,686.72,1209.89,688.03z"/>
		<path class="st0" d="M1204.31,686.67c1.12,0.31,2.18-0.01,2.68-0.93c0.72-1.31,0.07-3.35-1.46-4.54
			c-14.7-11.46-30.1-22.34-45.93-32.58c-1.65-1.07-3.59-0.82-4.32,0.55c-0.73,1.36,0.02,3.33,1.68,4.39
			c15.83,10.18,31.25,21,45.97,32.4C1203.37,686.3,1203.85,686.54,1204.31,686.67z"/>
		<path class="st0" d="M457.48,342.85c5.67,3.57,11.36,7.14,17.07,10.69c0.39,0.24,0.82,0.35,1.27,0.34
			c1.06-0.03,2.18-0.75,2.86-1.97c0.95-1.73,0.66-3.78-0.66-4.61c-5.7-3.54-11.37-7.09-17.03-10.65c-1.32-0.83-3.17-0.11-4.14,1.6
			C455.87,339.96,456.16,342.02,457.48,342.85z"/>
		<path class="st0" d="M829.36,487.88c-23.51-8.06-46.55-16.19-69.15-24.67c-1.53-0.58-3.43,0.28-4.22,1.93
			c-0.79,1.65-0.17,3.45,1.37,4.02c22.66,8.43,45.74,16.49,69.28,24.48c0.47,0.16,0.97,0.2,1.45,0.14c1.17-0.16,2.27-0.9,2.8-2.03
			C831.65,490.16,830.96,488.42,829.36,487.88z"/>
		<path class="st0" d="M748.41,465.79c0.45,0.17,0.93,0.22,1.41,0.15c1.14-0.15,2.25-0.92,2.8-2.09c0.79-1.64,0.19-3.45-1.34-4.04
			c-70.02-26.45-135.92-58.02-198.06-93.89c-1.36-0.78-3.25-0.01-4.21,1.72c-0.96,1.73-0.63,3.78,0.73,4.55
			C612.08,408.11,678.22,439.53,748.41,465.79z"/>
		<path class="st0" d="M477.84,329.04c20.65,12.87,41.54,25.59,62.86,37.96c0.4,0.23,0.84,0.33,1.3,0.31
			c1.09-0.06,2.22-0.8,2.9-2.02c0.96-1.73,0.65-3.77-0.7-4.55c-21.25-12.35-42.08-25.04-62.68-37.86c-1.31-0.81-3.21-0.1-4.23,1.6
			C476.28,326.17,476.53,328.22,477.84,329.04z"/>
		<path class="st0" d="M834.47,492.96c-0.74,1.58-0.04,3.31,1.57,3.86c51.19,17.33,104.72,34.54,159.82,56.16
			c0.51,0.2,1.04,0.29,1.55,0.27c1.24-0.04,2.37-0.67,2.89-1.7c0.72-1.48-0.1-3.22-1.83-3.91
			c-55.11-21.74-108.62-39.08-159.74-56.55C837.13,490.53,835.21,491.37,834.47,492.96z"/>
		<path class="st0" d="M1187.15,649.58c-0.74,1.33-0.03,3.33,1.56,4.48c19.87,14.27,38.73,29.62,55.89,45.8
			c0.41,0.38,0.83,0.66,1.26,0.82c1.02,0.4,1.99,0.17,2.47-0.72c0.69-1.25,0.14-3.32-1.23-4.63
			c-17.07-16.27-35.88-31.72-55.72-46.07C1189.79,648.1,1187.89,648.25,1187.15,649.58z"/>
		<path class="st0" d="M1181.01,648.25c1.17,0.27,2.27-0.1,2.8-1.03c0.74-1.33,0.03-3.33-1.59-4.46
			c-54.76-38.16-115.31-67.55-173.65-91.09c-1.74-0.7-3.73-0.08-4.45,1.4c-0.72,1.47,0.1,3.23,1.84,3.92
			c58.33,23.4,118.79,52.66,173.59,90.61C1180.02,647.92,1180.52,648.14,1181.01,648.25z"/>
		<path class="st0" d="M1249.19,762.75c-33.36-32.91-73.34-63.07-115.67-88.61c-1.66-1.01-3.59-0.68-4.29,0.73
			c-0.7,1.4,0.08,3.35,1.74,4.35c42.28,25.4,82.28,55.38,115.81,88.09c0.39,0.38,0.8,0.65,1.2,0.8c0.97,0.38,1.9,0.13,2.37-0.75
			C1251.01,766.11,1250.49,764.04,1249.19,762.75z"/>
		<path class="st0" d="M827.66,549.82c-1.63-0.51-3.48,0.38-4.12,1.98c-0.63,1.61,0.18,3.32,1.81,3.83
			c51.13,15.85,104.1,32.04,158.03,52.77c0.51,0.2,1.03,0.27,1.53,0.25c1.21-0.06,2.3-0.71,2.76-1.77c0.65-1.51-0.22-3.27-1.94-3.94
			C931.74,582.09,878.75,565.79,827.66,549.82z"/>
		<path class="st0" d="M660.57,495.73c-0.71,1.71-0.04,3.6,1.48,4.2c49.51,19.78,100.75,36.34,153.8,52.76
			c0.48,0.15,0.97,0.18,1.45,0.1c1.15-0.18,2.2-0.96,2.65-2.1c0.64-1.61-0.16-3.32-1.79-3.83c-53-16.53-104.17-33.23-153.56-53.11
			C663.08,493.13,661.27,494.02,660.57,495.73z"/>
		<path class="st0" d="M656,493.88c0.71-1.71,0.06-3.6-1.44-4.22c-26.11-10.74-51.71-22.33-76.76-34.79
			c-1.45-0.72-3.25,0.11-4.02,1.85c-0.78,1.75-0.21,3.74,1.24,4.46c25.12,12.44,50.79,24,76.97,34.68c0.44,0.18,0.92,0.23,1.37,0.17
			C654.46,495.89,655.5,495.09,656,493.88z"/>
		<path class="st0" d="M993.45,612.32c5.93,2.34,11.86,4.73,17.79,7.19c0.52,0.21,1.04,0.31,1.54,0.3c1.21-0.02,2.32-0.65,2.78-1.69
			c0.66-1.49-0.2-3.29-1.94-4c-5.94-2.47-11.88-4.88-17.81-7.23c-1.73-0.68-3.66-0.02-4.31,1.49
			C990.85,609.87,991.72,611.64,993.45,612.32z"/>
		<path class="st0" d="M1124.28,668.64c-32.78-19.21-66.73-35.82-100.58-50.28c-1.73-0.74-3.68-0.13-4.33,1.36
			c-0.66,1.49,0.21,3.29,1.94,4.02c33.8,14.38,67.68,30.9,100.44,50.01c0.49,0.29,1.01,0.46,1.5,0.52c1.19,0.16,2.29-0.31,2.79-1.3
			C1126.74,671.56,1125.95,669.62,1124.28,668.64z"/>
		<path class="st0" d="M420.98,371.9c46.03,29.89,93.81,58.9,144.18,84.35c0.42,0.22,0.88,0.29,1.33,0.26
			c1.08-0.09,2.13-0.86,2.68-2.1c0.77-1.75,0.24-3.75-1.2-4.48c-50.23-25.48-97.87-54.43-143.84-84.2c-1.32-0.85-3.1-0.17-3.98,1.53
			C419.29,368.97,419.66,371.04,420.98,371.9z"/>
		<path class="st0" d="M1248.28,783.28c-1.94-1.91-3.91-3.8-5.89-5.69c-1.33-1.27-2.96-1.26-3.63,0.03
			c-0.67,1.28-0.12,3.34,1.22,4.6c1.99,1.88,3.97,3.76,5.92,5.66c0.38,0.37,0.79,0.64,1.19,0.79c0.96,0.37,1.89,0.12,2.35-0.78
			C1250.1,786.62,1249.58,784.56,1248.28,783.28z"/>
		<path class="st0" d="M1029.25,646.71c1.2,0.01,2.3-0.6,2.75-1.65c0.65-1.48-0.22-3.31-1.94-4.07
			c-45.31-19.92-90.67-35.84-134.88-50.03c-1.68-0.54-3.54,0.29-4.15,1.86c-0.61,1.57,0.28,3.28,1.95,3.81
			c44.2,14.1,89.5,29.94,134.74,49.75C1028.22,646.61,1028.74,646.71,1029.25,646.71z"/>
		<path class="st0" d="M654.4,519.12c72.76,28.58,149.06,49.49,228.8,74.42c0.49,0.16,1,0.19,1.49,0.13
			c1.17-0.15,2.22-0.91,2.64-2.01c0.6-1.58-0.26-3.27-1.94-3.81c-79.76-25.08-155.97-46.19-228.57-74.91
			c-1.53-0.6-3.31,0.29-3.98,2.01C652.17,516.65,652.87,518.52,654.4,519.12z"/>
		<path class="st0" d="M404.99,386.66c73.83,49.18,153.67,94.76,239.27,128.45c0.45,0.18,0.92,0.23,1.38,0.16
			c1.1-0.15,2.12-0.96,2.6-2.16c0.67-1.71-0.01-3.6-1.53-4.21C561.29,475.05,481.75,429.48,408,380.54c-1.32-0.87-3.07-0.2-3.9,1.48
			C403.26,383.71,403.66,385.78,404.99,386.66z"/>
		<path class="st0" d="M1040.12,645.48c-1.72-0.78-3.64-0.2-4.29,1.28c-0.64,1.49,0.22,3.31,1.94,4.09
			c5.9,2.66,11.8,5.39,17.68,8.19c0.51,0.24,1.02,0.36,1.53,0.38c1.21,0.04,2.3-0.53,2.77-1.56c0.66-1.47-0.19-3.33-1.91-4.15
			C1051.93,650.9,1046.03,648.15,1040.12,645.48z"/>
		<path class="st0" d="M1121.42,690.73c-0.68,1.42,0.1,3.37,1.76,4.35c39.58,23.47,77.23,50.82,109.87,80.7
			c0.4,0.37,0.83,0.62,1.24,0.77c1.01,0.36,1.96,0.07,2.44-0.83c0.68-1.29,0.12-3.34-1.24-4.6
			c-32.52-30.06-70.19-57.58-109.82-81.17C1124.01,688.95,1122.11,689.31,1121.42,690.73z"/>
		<path class="st0" d="M1067.79,658.55c-1.71-0.85-3.64-0.33-4.3,1.13c-0.66,1.47,0.19,3.33,1.9,4.17
			c16.37,8.04,32.63,16.65,48.6,25.85c0.49,0.28,1,0.45,1.49,0.51c1.19,0.14,2.27-0.34,2.76-1.34c0.68-1.42-0.11-3.36-1.78-4.33
			C1100.47,675.29,1084.2,666.64,1067.79,658.55z"/>
		<path class="st0" d="M610.62,520.03c-0.66,1.72,0.05,3.63,1.56,4.27c57.02,23.97,116.19,42.82,177.29,60.9
			c0.47,0.14,0.97,0.17,1.44,0.08c1.13-0.2,2.14-1,2.55-2.15c0.58-1.63-0.28-3.34-1.9-3.83c-61.07-18.2-120.14-37.18-177.02-61.23
			C613.04,517.43,611.28,518.3,610.62,520.03z"/>
		<path class="st0" d="M604.73,520.76c1.09-0.13,2.1-0.93,2.56-2.14c0.66-1.72-0.02-3.65-1.53-4.29
			c-57.66-24.73-112.77-54.74-164.73-87.52c-1.36-0.85-3.1-0.16-3.88,1.54c-0.78,1.71-0.3,3.78,1.06,4.64
			c52.06,32.91,107.35,62.92,165.14,87.58C603.81,520.75,604.27,520.81,604.73,520.76z"/>
		<path class="st0" d="M390.09,401.61c12.89,8.66,25.91,17.23,39.11,25.66c0.4,0.25,0.83,0.38,1.26,0.38
			c1.03,0.01,2.05-0.69,2.6-1.89c0.78-1.7,0.32-3.78-1.04-4.65c-13.18-8.4-26.18-16.93-39.06-25.54c-1.32-0.88-3.05-0.25-3.84,1.42
			C388.33,398.65,388.77,400.72,390.09,401.61z"/>
		<path class="st0" d="M797.09,584.21c-0.58,1.62,0.28,3.34,1.91,3.82c51.89,15.38,105.36,30.8,159.68,50.6
			c0.5,0.18,1.02,0.25,1.51,0.21c1.19-0.09,2.24-0.78,2.66-1.86c0.6-1.54-0.3-3.29-2.01-3.92c-54.39-19.9-107.89-35.42-159.76-50.91
			C799.46,581.66,797.67,582.58,797.09,584.21z"/>
		<path class="st0" d="M1246.66,803.14c-59.66-58.79-138.44-108.02-217.08-142.43c-1.71-0.76-3.62-0.16-4.24,1.35
			c-0.63,1.5,0.25,3.32,1.96,4.08c78.51,34.24,157.04,83.18,216.99,141.62c0.38,0.37,0.79,0.63,1.19,0.78
			c0.96,0.36,1.88,0.09,2.34-0.8C1248.47,806.46,1247.96,804.41,1246.66,803.14z"/>
		<path class="st0" d="M1020.11,656.57c-16.43-7.08-32.89-13.66-49.3-19.82c-1.71-0.64-3.59,0.08-4.19,1.62
			c-0.6,1.53,0.3,3.29,2.01,3.93c16.38,6.13,32.82,12.67,49.22,19.72c0.5,0.22,1.01,0.32,1.52,0.31c1.2-0.01,2.27-0.63,2.71-1.7
			C1022.71,659.14,1021.82,657.31,1020.11,656.57z"/>
		<path class="st0" d="M351.51,447.12c42.32,30.42,86.98,59.59,134.2,85.06c0.43,0.23,0.88,0.34,1.33,0.32
			c1.06-0.03,2.04-0.76,2.5-1.95c0.64-1.69-0.02-3.71-1.49-4.5c-47.1-25.42-91.64-54.45-133.95-84.68
			c-1.32-0.94-2.97-0.41-3.69,1.17C349.7,444.12,350.2,446.17,351.51,447.12z"/>
		<path class="st0" d="M768.71,633.03c-51.01-14.38-101.06-29.25-149.91-47.63c-1.56-0.59-3.28,0.3-3.84,2
			c-0.56,1.69,0.26,3.54,1.83,4.13c48.96,18.33,99.08,33.13,150.1,47.44c0.48,0.14,0.97,0.15,1.43,0.06
			c1.12-0.22,2.08-1.03,2.43-2.19C771.25,635.2,770.34,633.49,768.71,633.03z"/>
		<path class="st0" d="M837.25,658.78c0.49,0.14,0.98,0.16,1.45,0.08c1.13-0.21,2.11-0.99,2.46-2.13c0.5-1.61-0.43-3.3-2.09-3.78
			c-20.43-5.9-40.72-11.56-60.86-17.23c-1.64-0.47-3.37,0.49-3.87,2.13c-0.5,1.64,0.41,3.33,2.05,3.79
			C796.54,647.28,816.83,652.91,837.25,658.78z"/>
		<path class="st0" d="M1039.17,725.35c-62.74-29.8-126.76-51.02-189.08-69.21c-1.66-0.49-3.42,0.42-3.93,2.03
			c-0.51,1.6,0.43,3.3,2.1,3.79c62.28,18.1,126.19,39.23,188.76,68.89c0.49,0.23,0.99,0.34,1.47,0.35c1.16,0.01,2.19-0.6,2.61-1.67
			C1041.7,728.02,1040.84,726.14,1039.17,725.35z"/>
		<path class="st0" d="M593.7,575.65c-1.55-0.62-3.27,0.25-3.84,1.94c-0.57,1.7,0.22,3.58,1.77,4.2c5.33,2.14,10.67,4.23,16.03,6.28
			c0.46,0.18,0.93,0.22,1.38,0.16c1.09-0.15,2.06-0.96,2.45-2.14c0.56-1.69-0.25-3.55-1.81-4.15
			C604.33,579.88,599,577.78,593.7,575.65z"/>
		<path class="st0" d="M493.85,536.53c28.87,15.28,58.54,29.17,88.77,41.6c0.46,0.19,0.92,0.25,1.37,0.19
			c1.08-0.13,2.06-0.92,2.46-2.11c0.57-1.7-0.21-3.6-1.75-4.23c-30.15-12.45-59.74-26.33-88.54-41.59
			c-1.47-0.78-3.18-0.04-3.83,1.66C491.7,533.74,492.38,535.75,493.85,536.53z"/>
		<path class="st0" d="M1128.4,781.16c0.46,0.3,0.94,0.47,1.41,0.54c1.12,0.16,2.14-0.32,2.61-1.34c0.65-1.44-0.09-3.44-1.66-4.44
			c-25.9-16.59-52.86-31.64-80.25-45.1c-1.66-0.82-3.5-0.25-4.1,1.27c-0.6,1.51,0.26,3.4,1.92,4.21
			C1075.64,749.69,1102.54,764.67,1128.4,781.16z"/>
		<path class="st0" d="M1237.94,859.21c-29.08-27.32-61.64-53.22-96.53-76.34c-1.55-1.03-3.35-0.7-4,0.75
			c-0.65,1.44,0.08,3.44,1.63,4.46c34.83,22.99,67.38,48.72,96.55,75.87c0.38,0.35,0.79,0.6,1.19,0.73
			c0.96,0.32,1.88,0.01,2.34-0.91C1239.75,862.47,1239.23,860.42,1237.94,859.21z"/>
		<path class="st0" d="M363.46,431.86c7.3,5.12,14.67,10.21,22.08,15.25c0.39,0.27,0.82,0.4,1.24,0.43c1.01,0.05,2-0.59,2.51-1.75
			c0.73-1.64,0.23-3.72-1.1-4.62c-7.41-5.02-14.75-10.08-22.06-15.17c-1.31-0.92-2.99-0.36-3.73,1.26
			C361.66,428.88,362.14,430.93,363.46,431.86z"/>
		<path class="st0" d="M575.35,549.57c-0.61,1.71,0.13,3.63,1.66,4.29c40.11,17.32,81.28,32.02,123.22,45.18
			c0.47,0.15,0.95,0.17,1.41,0.09c1.11-0.2,2.08-1.02,2.46-2.2c0.54-1.67-0.31-3.43-1.9-3.93c-41.89-13.23-82.97-27.98-122.98-45.33
			C577.69,547.01,575.95,547.86,575.35,549.57z"/>
		<path class="st0" d="M946.89,667.48c-80.61-28.73-159.53-47.9-235.4-71.58c-1.6-0.5-3.34,0.45-3.88,2.12
			c-0.54,1.67,0.32,3.42,1.92,3.92c75.97,23.55,154.87,42.59,235.35,71.2c0.5,0.18,1.01,0.23,1.49,0.19
			c1.16-0.11,2.19-0.82,2.58-1.92C949.5,669.84,948.58,668.09,946.89,667.48z"/>
		<path class="st0" d="M1239.27,838.97c-77.14-74.14-181.22-131.69-281.14-167.41c-1.69-0.63-3.52,0.14-4.08,1.69
			c-0.56,1.56,0.36,3.32,2.06,3.94c99.77,35.56,203.41,92.82,280.8,166.48c0.39,0.36,0.79,0.61,1.19,0.75
			c0.97,0.33,1.89,0.04,2.35-0.88C1241.1,842.25,1240.57,840.2,1239.27,838.97z"/>
		<path class="st0" d="M568.11,549.98c0.45,0.2,0.91,0.27,1.36,0.22c1.08-0.12,2.06-0.9,2.5-2.1c0.61-1.71-0.12-3.65-1.63-4.32
			c-5.21-2.31-10.39-4.66-15.56-7.06c-1.5-0.7-3.23,0.12-3.86,1.84c-0.63,1.71,0.09,3.67,1.6,4.37
			C557.7,545.32,562.9,547.67,568.11,549.98z"/>
		<path class="st0" d="M494.36,513.41c1.06-0.04,2.05-0.78,2.52-1.98c0.66-1.71,0.04-3.73-1.42-4.52
			c-34.75-18.83-68.2-39.52-100.39-61.1c-1.35-0.9-3.03-0.3-3.76,1.35c-0.73,1.65-0.23,3.71,1.12,4.62
			c32.23,21.69,65.78,42.45,100.61,61.32C493.47,513.33,493.92,513.43,494.36,513.41z"/>
		<path class="st0" d="M543.76,538.83c0.44,0.21,0.9,0.28,1.35,0.25c1.07-0.09,2.06-0.86,2.51-2.07c0.63-1.71-0.08-3.68-1.57-4.39
			c-14.36-6.81-28.54-13.95-42.53-21.39c-1.46-0.78-3.18-0.02-3.85,1.69c-0.67,1.71-0.02,3.73,1.45,4.51
			C515.15,524.88,529.37,532.02,543.76,538.83z"/>
		<path class="st0" d="M991.61,670.66c1.18-0.06,2.23-0.71,2.65-1.79c0.6-1.53-0.3-3.32-2.01-4.01
			c-64.16-25.75-127.81-44.13-189.28-62.05c-1.64-0.48-3.42,0.45-3.96,2.08c-0.55,1.63,0.34,3.33,1.98,3.8
			c61.48,17.81,125.07,36.09,189.12,61.71C990.6,670.6,991.12,670.68,991.61,670.66z"/>
		<path class="st0" d="M998.01,670.39c-0.6,1.53,0.3,3.33,2.01,4.03c64.94,26.57,130.32,61.89,187.13,105.64
			c0.44,0.34,0.89,0.55,1.34,0.66c1.08,0.26,2.09-0.1,2.57-1.06c0.68-1.36,0.04-3.39-1.44-4.54
			c-56.81-44.02-122.37-79.52-187.43-106.22C1000.48,668.2,998.61,668.87,998.01,670.39z"/>
		<path class="st0" d="M1244.38,822.38c-14.1-13.62-29.16-26.88-45.02-39.59c-1.45-1.17-3.19-1-3.88,0.34
			c-0.68,1.35-0.04,3.39,1.41,4.55c15.87,12.63,30.95,25.81,45.12,39.35c0.38,0.37,0.78,0.62,1.19,0.76
			c0.96,0.35,1.87,0.07,2.34-0.83C1246.18,825.68,1245.67,823.63,1244.38,822.38z"/>
		<path class="st0" d="M641.61,550.93c-1.55-0.59-3.29,0.32-3.9,2.02c-0.6,1.7,0.17,3.56,1.72,4.14
			c49.33,18.57,100.03,33.79,151.99,48.82c0.48,0.14,0.97,0.16,1.44,0.07c1.13-0.21,2.12-1.01,2.51-2.16
			c0.55-1.63-0.33-3.33-1.96-3.81C741.48,584.89,690.83,569.57,641.61,550.93z"/>
		<path class="st0" d="M376.29,416.7c62.54,43.15,129.92,83.71,201.75,115.31c0.45,0.19,0.91,0.27,1.36,0.21
			c1.08-0.12,2.08-0.9,2.53-2.12c0.64-1.72-0.06-3.66-1.57-4.33c-71.66-31.66-138.81-72.13-201.31-115.03
			c-1.33-0.9-3.01-0.3-3.78,1.34C374.51,413.72,374.96,415.79,376.29,416.7z"/>
		<path class="st0" d="M586.39,535.68c14.53,6.3,29.21,12.29,44.03,17.99c0.45,0.17,0.92,0.22,1.38,0.15
			c1.09-0.16,2.08-0.97,2.51-2.17c0.61-1.7-0.15-3.57-1.69-4.16c-14.78-5.72-29.43-11.72-43.92-18.04c-1.51-0.66-3.26,0.2-3.9,1.92
			C584.16,533.09,584.88,535.02,586.39,535.68z"/>
		<path class="st0" d="M479.96,551.4c1.06-0.03,2.04-0.74,2.48-1.92c0.62-1.67-0.07-3.69-1.55-4.48
			c-35.96-19.4-70.52-41-103.5-63.76c-1.36-0.93-3.01-0.4-3.7,1.21c-0.69,1.6-0.15,3.66,1.21,4.6
			c33.03,22.9,67.69,44.58,103.73,64.03C479.07,551.31,479.52,551.41,479.96,551.4z"/>
		<path class="st0" d="M699.88,633.3c-1.61-0.48-3.32,0.47-3.82,2.13c-0.5,1.66,0.41,3.4,2.02,3.88
			c20.95,6.26,42.06,12.19,63.3,18.07c0.48,0.13,0.96,0.14,1.43,0.05c1.11-0.22,2.07-1.05,2.4-2.2c0.48-1.64-0.45-3.33-2.08-3.79
			C741.9,645.54,720.81,639.58,699.88,633.3z"/>
		<path class="st0" d="M768.81,656.23c-0.49,1.64,0.46,3.33,2.09,3.78c70.54,19.42,143.03,39.01,215.17,68.57
			c0.49,0.2,0.99,0.28,1.47,0.25c1.14-0.06,2.16-0.74,2.55-1.84c0.55-1.55-0.35-3.38-2.03-4.06
			c-72.31-29.68-144.9-49.34-215.42-68.85C771.02,653.63,769.3,654.59,768.81,656.23z"/>
		<path class="st0" d="M1030.47,748.05c0.49,0.22,0.98,0.34,1.46,0.34c1.15,0,2.17-0.62,2.58-1.71c0.59-1.53-0.29-3.42-1.94-4.19
			c-11.08-5.22-22.23-10.19-33.4-14.93c-1.67-0.71-3.47-0.02-4.03,1.54c-0.55,1.55,0.34,3.38,2.01,4.09
			C1008.29,737.9,1019.41,742.85,1030.47,748.05z"/>
		<path class="st0" d="M673.98,625.32c-1.6-0.51-3.31,0.43-3.81,2.1c-0.51,1.67,0.39,3.43,1.99,3.94c5.5,1.73,11.01,3.44,16.54,5.11
			c0.47,0.14,0.95,0.16,1.41,0.08c1.09-0.21,2.05-1.03,2.4-2.2c0.5-1.66-0.4-3.41-2.01-3.9
			C684.98,628.77,679.47,627.06,673.98,625.32z"/>
		<path class="st0" d="M340.42,462.42c8.97,6.59,18.02,13.11,27.19,19.55c0.4,0.28,0.81,0.43,1.24,0.46c1,0.08,1.97-0.51,2.46-1.64
			c0.69-1.6,0.16-3.66-1.19-4.6c-9.16-6.4-18.2-12.89-27.17-19.43c-1.32-0.96-2.95-0.48-3.65,1.08
			C338.59,459.4,339.1,461.45,340.42,462.42z"/>
		<path class="st0" d="M664.24,628.49c1.09-0.2,2.05-1.01,2.41-2.19c0.51-1.67-0.37-3.44-1.97-3.96
			c-60.32-19.38-119.41-43.17-175.6-72.97c-1.49-0.78-3.19-0.06-3.81,1.62c-0.62,1.68,0.08,3.68,1.57,4.46
			c56.34,29.87,115.57,53.63,176,72.94C663.3,628.55,663.78,628.57,664.24,628.49z"/>
		<path class="st0" d="M1039.76,749.19c-0.58,1.53,0.28,3.42,1.92,4.22c46.41,22.55,91.6,49.83,132.63,80.79
			c0.43,0.32,0.88,0.53,1.31,0.62c1.05,0.22,2.05-0.18,2.51-1.18c0.66-1.4,0.02-3.43-1.43-4.54
			c-41.07-31.15-86.37-58.59-132.9-81.24C1042.16,747.07,1040.34,747.66,1039.76,749.19z"/>
		<path class="st0" d="M1233.8,876.87c-14.97-13.8-30.73-27.26-47.23-40.17c-1.43-1.12-3.14-0.9-3.8,0.5
			c-0.66,1.4-0.03,3.43,1.4,4.54c16.5,12.84,32.27,26.2,47.28,39.92c0.38,0.35,0.79,0.59,1.19,0.71c0.96,0.31,1.88-0.02,2.34-0.95
			C1235.62,880.1,1235.09,878.07,1233.8,876.87z"/>
		<path class="st0" d="M330.1,477.78c30.71,23.15,62.8,45.49,96.48,66.02c0.43,0.26,0.87,0.38,1.3,0.4
			c1.04,0.03,2.02-0.61,2.47-1.77c0.64-1.64-0.01-3.67-1.45-4.55c-33.6-20.45-65.62-42.66-96.33-65.65
			c-1.32-0.98-2.95-0.54-3.62,0.98C328.27,474.75,328.78,476.79,330.1,477.78z"/>
		<path class="st0" d="M666.64,650.06c42.29,13.15,85.11,24.53,128.34,36.35c0.48,0.13,0.97,0.15,1.43,0.05
			c1.11-0.22,2.06-1.03,2.39-2.19c0.47-1.63-0.49-3.32-2.13-3.77c-43.24-11.87-86.04-23.28-128.26-36.47c-1.61-0.5-3.3,0.44-3.8,2.1
			C664.12,647.81,665.04,649.56,666.64,650.06z"/>
		<path class="st0" d="M806.26,683.15c-1.65-0.46-3.36,0.5-3.83,2.13c-0.47,1.63,0.49,3.31,2.14,3.77
			c17.48,4.81,35.01,9.73,52.61,14.93c0.48,0.14,0.98,0.17,1.45,0.09c1.12-0.19,2.08-0.98,2.42-2.12c0.47-1.61-0.47-3.32-2.14-3.81
			C841.29,692.92,823.74,687.98,806.26,683.15z"/>
		<path class="st0" d="M1216.06,889.19c0.98,0.28,1.92-0.09,2.38-1.04c0.65-1.36,0.1-3.39-1.22-4.55
			c-97.73-87.41-226.56-147.65-347.29-182.18c-1.66-0.5-3.4,0.4-3.88,2.01c-0.48,1.61,0.47,3.32,2.14,3.82
			c120.64,34.42,248.84,94.44,346.66,181.26C1215.24,888.85,1215.64,889.08,1216.06,889.19z"/>
		<path class="st0" d="M534.75,593.89c-1.54-0.7-3.25,0.09-3.81,1.77c-0.57,1.67,0.23,3.6,1.77,4.3
			c40.64,18.39,82.33,33.77,124.55,47.16c0.47,0.15,0.95,0.18,1.41,0.09c1.09-0.2,2.04-1.01,2.39-2.18
			c0.49-1.67-0.41-3.42-2.01-3.94C616.88,627.67,575.28,612.27,534.75,593.89z"/>
		<path class="st0" d="M436.29,542.35c-1.45-0.86-3.14-0.24-3.78,1.4c-0.64,1.64,0.02,3.67,1.47,4.54c12.4,7.43,25,14.6,37.75,21.49
			c0.44,0.24,0.89,0.34,1.34,0.34c1.06-0.02,2.04-0.71,2.46-1.88c0.61-1.66-0.11-3.66-1.6-4.46
			C461.22,556.89,448.67,549.75,436.29,542.35z"/>
		<path class="st0" d="M480.02,574.19c14.39,7.59,28.98,14.82,43.72,21.66c0.45,0.21,0.92,0.29,1.37,0.26
			c1.07-0.08,2.05-0.82,2.44-2c0.57-1.67-0.21-3.61-1.75-4.32c-14.71-6.84-29.25-14.05-43.6-21.62c-1.5-0.79-3.2-0.09-3.8,1.58
			C477.79,571.41,478.51,573.4,480.02,574.19z"/>
		<path class="st0" d="M1229.08,894.14c-0.96-0.87-1.93-1.73-2.89-2.6c-1.31-1.17-2.9-1.03-3.56,0.32c-0.65,1.35-0.11,3.39,1.2,4.55
			c0.97,0.86,1.93,1.72,2.9,2.58c0.39,0.34,0.78,0.57,1.19,0.69c0.96,0.3,1.88-0.05,2.34-1
			C1230.91,897.35,1230.39,895.32,1229.08,894.14z"/>
		<path class="st0" d="M773.37,700.28c61.55,16.58,123.97,33.76,185.95,57.82c0.48,0.19,0.98,0.26,1.45,0.21
			c1.12-0.1,2.11-0.81,2.48-1.93c0.52-1.59-0.4-3.4-2.05-4.04c-62.12-24.13-124.62-41.36-186.18-57.98
			c-1.64-0.45-3.34,0.52-3.79,2.16C770.76,698.15,771.73,699.84,773.37,700.28z"/>
		<path class="st0" d="M1151.28,859.92c1.06,0.18,2.04-0.29,2.5-1.32c0.65-1.45-0.02-3.48-1.48-4.52
			c-56.07-40.02-118.48-72.95-181.5-97.95c-1.65-0.66-3.41,0.1-3.93,1.69c-0.52,1.59,0.4,3.4,2.04,4.06
			c62.87,24.92,125.08,57.7,181.05,97.48C1150.4,859.65,1150.84,859.85,1151.28,859.92z"/>
		<path class="st0" d="M1223.76,911c-19.89-17.63-40.89-34.7-63-50.83c-1.45-1.06-3.15-0.74-3.8,0.71
			c-0.65,1.45,0.01,3.48,1.45,4.53c22.08,16.04,43.08,32.99,63,50.51c0.38,0.34,0.79,0.56,1.19,0.67c0.97,0.27,1.89-0.09,2.35-1.04
			C1225.59,914.2,1225.06,912.16,1223.76,911z"/>
		<path class="st0" d="M320.49,493.21c112.01,90.13,250.89,154.15,390.06,189.91c6.4,1.8,12.83,3.58,19.25,5.35
			c0.02,0.01,0.04,0,0.06,0.01c11.29,3.1,22.6,6.16,33.94,9.22c0.48,0.13,0.97,0.14,1.43,0.04c1.11-0.23,2.04-1.05,2.36-2.21
			c0.45-1.64-0.51-3.32-2.14-3.77c-14.63-3.96-29.22-7.92-43.76-11.96c-0.02-0.01-0.05-0.01-0.07-0.01
			c-3.11-0.86-6.22-1.74-9.33-2.61c-0.03,0-0.05-0.02-0.07-0.03c-15.59-4.39-31.13-8.91-46.6-13.66c-0.03-0.01-0.05-0.01-0.08-0.01
			c-122.93-35.55-243.21-97.14-342.6-175.7c-1.32-1.01-2.93-0.61-3.6,0.89C318.65,490.16,319.17,492.2,320.49,493.21z"/>
		<path class="st0" d="M1204.35,959.81c-28.19-23.41-58.1-45.86-89.72-66.48c-1.47-0.96-3.17-0.49-3.79,1.06
			c-0.62,1.54,0.06,3.56,1.53,4.51c31.54,20.5,61.41,42.81,89.61,66.05c0.38,0.32,0.8,0.52,1.2,0.61c0.96,0.22,1.89-0.21,2.36-1.22
			C1206.19,962.93,1205.66,960.9,1204.35,959.81z"/>
		<path class="st0" d="M764.66,750.75c-1.64-0.44-3.32,0.54-3.76,2.17c-0.44,1.64,0.54,3.32,2.18,3.76
			c51.23,13.68,102.49,27.85,153.24,46.04c0.48,0.17,0.96,0.22,1.42,0.16c1.1-0.14,2.06-0.9,2.4-2.06c0.49-1.63-0.43-3.43-2.06-4.01
			C867.22,778.6,815.89,764.43,764.66,750.75z"/>
		<path class="st0" d="M705.9,741.34c15.87,4.34,31.76,8.56,47.63,12.8c0.48,0.13,0.96,0.13,1.42,0.04c1.1-0.23,2.03-1.06,2.34-2.21
			c0.43-1.64-0.54-3.32-2.18-3.76c-15.88-4.24-31.75-8.46-47.62-12.8c-1.63-0.45-3.33,0.52-3.76,2.16
			C703.29,739.2,704.27,740.89,705.9,741.34z"/>
		<path class="st0" d="M927.56,800.25c-1.62-0.6-3.33,0.24-3.83,1.88c-0.49,1.63,0.42,3.43,2.05,4.03
			c5.56,2.05,11.11,4.14,16.66,6.28c0.48,0.18,0.95,0.24,1.42,0.19c1.1-0.12,2.06-0.86,2.42-2.01c0.51-1.62-0.4-3.46-2.02-4.08
			C938.7,804.39,933.14,802.3,927.56,800.25z"/>
		<path class="st0" d="M1107.72,888.87c-48.69-31.22-100.92-57.57-154.06-78.63c-1.61-0.64-3.33,0.16-3.84,1.78
			c-0.5,1.63,0.39,3.46,2,4.1c53.01,21.02,105.08,47.28,153.65,78.34c0.43,0.28,0.88,0.43,1.32,0.47c1.06,0.09,2.03-0.47,2.47-1.56
			C1109.89,891.83,1109.2,889.81,1107.72,888.87z"/>
		<path class="st0" d="M295.6,540.18c60.28,50.47,130.01,95.86,203.74,129.49c8.22,3.79,16.47,7.44,24.77,10.98
			c56.19,24.02,113.62,41.92,170.92,57.71c0.48,0.13,0.97,0.15,1.43,0.05c1.1-0.22,2.03-1.04,2.34-2.2
			c0.44-1.64-0.53-3.33-2.16-3.79c-44.28-12.24-88.54-25.63-132.29-42.23c-0.02-0.01-0.04-0.02-0.05-0.03
			c-11.89-4.5-23.73-9.23-35.51-14.21c-9.21-3.89-18.37-7.93-27.48-12.13c-0.02,0-0.03-0.01-0.05-0.02
			c-73.51-33.53-142.99-78.67-203.28-128.77c-1.31-1.08-2.9-0.81-3.56,0.61C293.76,537.06,294.29,539.09,295.6,540.18z"/>
		<path class="st0" d="M971.84,803.38c1.11-0.08,2.08-0.79,2.45-1.93c0.52-1.6-0.37-3.46-1.99-4.13
			c-42.63-17.68-85.87-31.97-129.04-44.56c-1.64-0.48-3.34,0.46-3.79,2.09c-0.45,1.64,0.52,3.34,2.15,3.82
			c43.12,12.57,86.27,26.85,128.8,44.48C970.9,803.34,971.38,803.41,971.84,803.38z"/>
		<path class="st0" d="M708.7,719.14c-0.44,1.64,0.52,3.34,2.16,3.78c40.32,11.03,80.77,21.37,121.21,32.97
			c0.49,0.14,0.97,0.16,1.43,0.07c1.1-0.21,2.04-1.02,2.36-2.17c0.45-1.63-0.52-3.34-2.16-3.81
			c-40.49-11.62-80.94-21.96-121.24-33.01C710.82,716.53,709.14,717.5,708.7,719.14z"/>
		<path class="st0" d="M382.85,579.54c-0.64,1.55,0.02,3.58,1.47,4.54C481.1,649.24,591.39,690.93,700,719.94
			c0.48,0.13,0.96,0.14,1.42,0.05c1.1-0.22,2.03-1.05,2.34-2.2c0.44-1.64-0.52-3.34-2.15-3.79
			c-108.55-29.03-218.46-70.72-315.01-135.54C385.16,577.51,383.48,577.98,382.85,579.54z"/>
		<path class="st0" d="M1059.85,845.9c0.46,0.25,0.93,0.38,1.38,0.39c1.09,0.03,2.07-0.58,2.49-1.68c0.59-1.56-0.19-3.53-1.75-4.38
			c-26.17-14.38-53.04-27.34-80.21-38.93c-1.62-0.69-3.35,0.06-3.88,1.66c-0.52,1.61,0.36,3.46,1.98,4.15
			C1006.96,818.66,1033.74,831.58,1059.85,845.9z"/>
		<path class="st0" d="M1211.4,943.8c-27.69-23.53-57.22-46.07-88.49-66.76c-1.48-0.98-3.18-0.54-3.81,0.98
			c-0.63,1.51,0.07,3.53,1.54,4.51c31.21,20.57,60.7,42.97,88.41,66.33c0.38,0.33,0.79,0.53,1.2,0.63c0.97,0.23,1.89-0.17,2.35-1.16
			C1213.23,946.94,1212.71,944.91,1211.4,943.8z"/>
		<path class="st0" d="M1113.79,877.68c1.07,0.11,2.04-0.43,2.48-1.51c0.63-1.52-0.07-3.53-1.56-4.5
			c-14.27-9.22-28.86-18.04-43.71-26.42c-1.55-0.87-3.28-0.31-3.87,1.25c-0.59,1.56,0.18,3.53,1.73,4.4
			c14.8,8.34,29.35,17.12,43.59,26.29C1112.89,877.48,1113.34,877.64,1113.79,877.68z"/>
		<path class="st0" d="M303.27,524.37c22.75,18.44,46.46,36.3,71.27,53.14c0.42,0.29,0.86,0.45,1.29,0.49
			c1.03,0.12,2-0.45,2.45-1.53c0.64-1.55-0.01-3.58-1.43-4.54c-24.75-16.74-48.44-34.48-71.19-52.79c-1.32-1.06-2.91-0.74-3.57,0.7
			C301.43,521.28,301.95,523.31,303.27,524.37z"/>
		<path class="st0" d="M752.11,707.94c-24.05-6.47-48.01-12.98-71.88-19.94c-1.62-0.48-3.31,0.48-3.77,2.13
			c-0.46,1.65,0.49,3.37,2.12,3.84c23.89,6.95,47.87,13.46,71.92,19.91c0.48,0.13,0.97,0.13,1.42,0.04c1.1-0.23,2.03-1.05,2.35-2.21
			C754.71,710.06,753.74,708.37,752.11,707.94z"/>
		<path class="st0" d="M669.11,691.18c0.48,0.14,0.96,0.16,1.42,0.07c1.1-0.21,2.03-1.02,2.36-2.19c0.46-1.65-0.49-3.38-2.11-3.86
			c-74.1-21.78-147.67-49.72-216.7-88.04c-1.5-0.83-3.21-0.2-3.81,1.42c-0.59,1.62,0.14,3.6,1.66,4.44
			C521.15,641.49,594.93,669.43,669.11,691.18z"/>
		<path class="st0" d="M311.55,508.72c40.44,32.07,84.02,62.43,130.38,88.71c0.44,0.25,0.9,0.38,1.34,0.38
			c1.07,0.02,2.03-0.62,2.46-1.76c0.59-1.62-0.13-3.61-1.63-4.46c-46.24-26.19-89.71-56.36-130.15-88.21
			c-1.31-1.03-2.92-0.68-3.58,0.79C309.71,505.64,310.23,507.68,311.55,508.72z"/>
		<path class="st0" d="M757.9,712.68c-0.45,1.64,0.53,3.32,2.16,3.76c52.1,13.95,104.58,28.03,156.89,46.2
			c0.48,0.16,0.97,0.21,1.44,0.15c1.12-0.14,2.08-0.9,2.42-2.04c0.49-1.61-0.45-3.38-2.1-3.96
			c-52.41-18.21-104.95-32.32-157.04-46.29C760.04,710.07,758.35,711.04,757.9,712.68z"/>
		<path class="st0" d="M1217.87,927.54c-35.98-31.3-75.6-60.81-117.94-86.56c-1.54-0.93-3.28-0.45-3.88,1.08
			c-0.61,1.52,0.14,3.51,1.67,4.44c42.23,25.62,81.77,54.94,117.8,86.03c0.39,0.33,0.79,0.55,1.19,0.65
			c0.96,0.25,1.89-0.13,2.35-1.1C1219.7,930.7,1219.18,928.67,1217.87,927.54z"/>
		<path class="st0" d="M1091.17,835.7c-52.1-30.98-107.41-55.83-162.86-75.53c-1.64-0.59-3.38,0.25-3.87,1.86
			c-0.49,1.61,0.45,3.39,2.09,3.97c55.34,19.65,110.49,44.42,162.45,75.24c0.45,0.26,0.92,0.42,1.37,0.45
			c1.09,0.08,2.08-0.49,2.51-1.56C1093.47,838.6,1092.72,836.62,1091.17,835.7z"/>
		<path class="st0" d="M1196.54,975.89c-11.7-9.47-23.64-18.8-35.86-27.9c-1.37-1.02-3.02-0.63-3.67,0.87
			c-0.65,1.5-0.07,3.54,1.3,4.56c12.21,9.05,24.14,18.31,35.84,27.71c0.39,0.31,0.8,0.5,1.2,0.58c0.97,0.19,1.9-0.26,2.37-1.28
			C1198.39,978.99,1197.86,976.96,1196.54,975.89z"/>
		<path class="st0" d="M960.09,840.17c1.09-0.1,2.06-0.83,2.42-1.99c0.52-1.64-0.35-3.5-1.95-4.16
			c-41.97-17.42-84.68-31.64-127.54-44.19c-1.63-0.47-3.32,0.47-3.77,2.11c-0.46,1.64,0.5,3.36,2.13,3.84
			c42.82,12.55,85.44,26.77,127.3,44.16C959.16,840.15,959.64,840.22,960.09,840.17z"/>
		<path class="st0" d="M586.14,721.98c-0.49,1.62,0.45,3.4,2.09,3.96c77.91,26.96,156.22,44.76,233.67,67.08
			c0.47,0.14,0.96,0.15,1.42,0.06c1.1-0.22,2.03-1.02,2.35-2.19c0.45-1.64-0.51-3.36-2.14-3.83c-77.53-22.3-155.8-40.1-233.56-67.01
			C588.34,719.51,586.62,720.36,586.14,721.98z"/>
		<path class="st0" d="M579.13,716.27c-96.65-33.53-192.36-85.96-271.5-150.95c-1.34-1.08-2.96-0.81-3.61,0.61
			c-0.65,1.42-0.1,3.46,1.24,4.55c79.15,65.45,175.27,118.09,272.1,151.67c0.48,0.17,0.97,0.22,1.43,0.16
			c1.11-0.15,2.07-0.9,2.41-2.04C581.7,718.63,580.76,716.85,579.13,716.27z"/>
		<path class="st0" d="M969.88,837.94c-1.59-0.67-3.31,0.1-3.83,1.74c-0.53,1.63,0.34,3.5,1.93,4.18
			c5.45,2.33,10.89,4.71,16.31,7.14c0.46,0.21,0.94,0.28,1.39,0.26c1.09-0.07,2.06-0.78,2.44-1.93c0.54-1.63-0.31-3.53-1.89-4.24
			C980.8,842.66,975.34,840.27,969.88,837.94z"/>
		<path class="st0" d="M1044.91,877.46c-0.58,1.61,0.18,3.58,1.71,4.41c36.52,19.83,71.62,42.28,104.64,66.36
			c0.4,0.3,0.83,0.47,1.25,0.53c1.01,0.14,1.96-0.37,2.42-1.43c0.66-1.5,0.06-3.55-1.32-4.56c-33.07-24.24-68.26-46.8-104.88-66.71
			C1047.2,875.23,1045.49,875.86,1044.91,877.46z"/>
		<path class="st0" d="M995.42,849.29c-1.58-0.73-3.3,0-3.84,1.63c-0.54,1.63,0.3,3.54,1.87,4.26c15.07,6.96,29.99,14.35,44.7,22.15
			c0.45,0.24,0.91,0.35,1.37,0.35c1.08,0,2.05-0.65,2.46-1.79c0.58-1.61-0.19-3.58-1.73-4.39
			C1025.49,863.67,1010.53,856.27,995.42,849.29z"/>
		<path class="st0" d="M288.43,556.46c2.58,2.19,5.16,4.37,7.76,6.54c0.39,0.33,0.8,0.53,1.21,0.63c0.98,0.23,1.91-0.19,2.37-1.19
			c0.66-1.42,0.1-3.44-1.21-4.54c-2.6-2.16-5.19-4.32-7.77-6.5c-1.31-1.11-2.9-0.87-3.55,0.52
			C286.59,553.32,287.12,555.35,288.43,556.46z"/>
		<path class="st0" d="M543.02,726.62c-0.51,1.6,0.4,3.42,2.05,4.05c61.7,23.86,123.96,40.95,185.49,57.44
			c0.48,0.12,0.97,0.14,1.43,0.04c1.1-0.23,2.03-1.06,2.35-2.21c0.45-1.64-0.52-3.32-2.16-3.76
			c-61.54-16.46-123.7-33.52-185.26-57.32C545.28,724.24,543.53,725.02,543.02,726.62z"/>
		<path class="st0" d="M355.28,630.52c55.83,39.26,117.65,71.7,180.24,96.42c0.48,0.19,0.97,0.26,1.44,0.22
			c1.12-0.1,2.1-0.81,2.46-1.94c0.51-1.6-0.4-3.42-2.03-4.07c-62.45-24.64-124.06-56.95-179.78-95.98c-1.46-1.01-3.15-0.65-3.8,0.83
			C353.16,627.47,353.82,629.5,355.28,630.52z"/>
		<path class="st0" d="M281.85,573.02c20.21,17.56,41.48,34.56,63.8,50.65c0.42,0.3,0.87,0.49,1.3,0.56
			c1.04,0.18,2.02-0.3,2.48-1.34c0.64-1.47-0.01-3.5-1.45-4.53c-22.29-15.99-43.54-32.88-63.78-50.32
			c-1.31-1.13-2.89-0.93-3.54,0.44C280.01,569.86,280.54,571.88,281.85,573.02z"/>
		<path class="st0" d="M896.82,830.72c-51.15-17.93-102.98-32.02-155.07-45.96c-1.64-0.44-3.33,0.53-3.77,2.17
			c-0.45,1.64,0.53,3.32,2.16,3.76c52.09,13.97,103.87,28.09,154.91,46.02c0.47,0.17,0.95,0.21,1.41,0.14
			c1.09-0.16,2.04-0.94,2.39-2.11C899.33,833.08,898.43,831.29,896.82,830.72z"/>
		<path class="st0" d="M1188.09,991.8c-67.58-54-145.29-102.18-227.28-136.43c-1.58-0.67-3.29,0.13-3.81,1.78
			c-0.53,1.65,0.33,3.52,1.9,4.19c81.78,34.22,159.21,82.19,226.78,135.8c0.39,0.3,0.79,0.49,1.2,0.56
			c0.97,0.17,1.91-0.32,2.38-1.35C1189.93,994.87,1189.41,992.84,1188.09,991.8z"/>
		<path class="st0" d="M952.06,851.71c-15.19-6.27-30.5-12.15-45.89-17.67c-1.6-0.58-3.31,0.3-3.8,1.95
			c-0.49,1.65,0.41,3.46,2.01,4.04c15.35,5.53,30.62,11.4,45.78,17.66c0.46,0.19,0.94,0.26,1.39,0.21c1.09-0.11,2.05-0.85,2.42-2.02
			C954.51,854.24,953.65,852.36,952.06,851.71z"/>
		<path class="st0" d="M265.76,624.62c42.58,39.5,92.33,75.87,145.38,105.66c0.48,0.27,0.96,0.41,1.44,0.45
			c1.13,0.08,2.17-0.46,2.6-1.52c0.62-1.5-0.19-3.44-1.8-4.35c-52.93-29.63-102.58-65.78-145.27-105.03
			c-1.3-1.19-2.87-1.09-3.53,0.23C263.94,621.38,264.46,623.43,265.76,624.62z"/>
		<path class="st0" d="M711.49,842.93c1.11-0.22,2.07-1.04,2.42-2.19c0.49-1.63-0.45-3.32-2.1-3.77
			c-51.32-14.16-103.54-28.76-155.93-47.68c-1.67-0.6-3.46,0.18-3.99,1.76c-0.53,1.57,0.4,3.35,2.08,3.95
			c52.49,19,104.76,33.66,156.08,47.88C710.53,843.01,711.03,843.03,711.49,842.93z"/>
		<path class="st0" d="M721.36,839.61c-1.64-0.45-3.36,0.5-3.84,2.14c-0.49,1.63,0.45,3.33,2.09,3.78
			c20.18,5.59,40.24,11.17,60.15,16.96c0.47,0.14,0.96,0.15,1.42,0.06c1.1-0.22,2.06-1.04,2.4-2.21c0.49-1.66-0.42-3.38-2.04-3.85
			C761.61,850.72,741.55,845.17,721.36,839.61z"/>
		<path class="st0" d="M968.82,931.21c1.07-0.09,2.05-0.83,2.47-2.02c0.6-1.69-0.17-3.64-1.69-4.35
			c-57.25-26.86-116.76-47.51-177.33-65.22c-1.61-0.47-3.32,0.48-3.82,2.14c-0.49,1.66,0.41,3.39,2.03,3.86
			c60.51,17.78,119.89,38.49,176.99,65.34C967.91,931.17,968.37,931.25,968.82,931.21z"/>
		<path class="st0" d="M528.86,779.15c-1.67-0.65-3.47,0.08-4.01,1.65c-0.54,1.56,0.37,3.36,2.05,4.02
			c5.76,2.25,11.51,4.45,17.28,6.59c0.49,0.18,1,0.25,1.48,0.2c1.15-0.1,2.15-0.81,2.53-1.93c0.54-1.57-0.4-3.35-2.07-3.97
			C540.35,783.58,534.6,781.39,528.86,779.15z"/>
		<path class="st0" d="M420.07,735.25c31.7,17.37,64.32,32.52,97.07,45.7c0.49,0.2,0.99,0.28,1.48,0.25
			c1.15-0.07,2.16-0.76,2.55-1.86c0.55-1.56-0.37-3.37-2.04-4.04c-32.68-13.13-65.21-28.2-96.84-45.49
			c-1.62-0.89-3.42-0.38-4.04,1.11C417.64,732.42,418.45,734.36,420.07,735.25z"/>
		<path class="st0" d="M1053.22,968.9c-23.81-14.01-48.3-27.13-73.29-39.16c-1.52-0.73-3.23,0.05-3.82,1.74
			c-0.59,1.69,0.15,3.64,1.66,4.38c24.92,12.02,49.34,25.1,73.09,39.07c0.42,0.25,0.87,0.37,1.3,0.37c1.04,0,2.02-0.67,2.49-1.84
			C1055.3,971.79,1054.66,969.76,1053.22,968.9z"/>
		<path class="st0" d="M1158.6,1038.92c-30.55-22.41-62.32-44.12-95.57-64.16c-1.43-0.86-3.13-0.22-3.78,1.44
			c-0.65,1.66-0.02,3.7,1.4,4.56c33.17,19.96,64.88,41.55,95.42,63.81c0.39,0.28,0.8,0.44,1.21,0.48c0.99,0.1,1.95-0.46,2.44-1.57
			C1160.42,1041.93,1159.92,1039.88,1158.6,1038.92z"/>
		<path class="st0" d="M270.51,607.03c10.34,9.37,21.02,18.58,32.03,27.57c0.41,0.33,0.83,0.55,1.26,0.66
			c1.01,0.25,1.98-0.14,2.45-1.12c0.66-1.39,0.07-3.43-1.32-4.55c-11.02-8.93-21.7-18.08-32.07-27.39c-1.3-1.16-2.89-1.04-3.53,0.29
			C268.68,603.81,269.21,605.84,270.51,607.03z"/>
		<path class="st0" d="M508.12,753.57c-0.54,1.57,0.35,3.4,2.02,4.09c43.64,18.22,87.68,32.82,131.28,45.7
			c0.49,0.15,0.98,0.16,1.45,0.09c1.12-0.19,2.09-0.99,2.42-2.12c0.48-1.61-0.48-3.32-2.14-3.8
			c-43.57-12.83-87.51-27.39-131.06-45.54C510.44,751.3,508.66,752,508.12,753.57z"/>
		<path class="st0" d="M884.12,874.57c1.09-0.16,2.05-0.96,2.41-2.14c0.51-1.68-0.36-3.49-1.95-4.05
			c-75.53-26.94-153.08-45.31-231.78-68.04c-1.65-0.48-3.39,0.43-3.86,2.05c-0.48,1.61,0.48,3.32,2.14,3.8
			c78.77,22.8,156.27,41.25,231.65,68.24C883.18,874.6,883.66,874.64,884.12,874.57z"/>
		<path class="st0" d="M1156.22,1020.68c0.99,0.11,1.95-0.44,2.42-1.53c0.69-1.54,0.16-3.6-1.17-4.57
			c-78.4-58.65-168.43-108.86-262.37-142.41c-1.58-0.58-3.29,0.31-3.8,1.99c-0.52,1.67,0.35,3.5,1.93,4.08
			c93.76,33.6,183.43,83.71,261.77,141.95C1155.39,1020.47,1155.8,1020.64,1156.22,1020.68z"/>
		<path class="st0" d="M500.45,753.56c0.48,0.21,0.99,0.3,1.46,0.28c1.14-0.05,2.14-0.72,2.53-1.82c0.54-1.56-0.35-3.4-2-4.11
			c-5.67-2.44-11.34-4.93-16.99-7.49c-1.65-0.75-3.43-0.09-3.99,1.46c-0.57,1.55,0.31,3.42,1.96,4.17
			C489.08,748.61,494.76,751.12,500.45,753.56z"/>
		<path class="st0" d="M419.59,713.57c1.12,0.07,2.15-0.49,2.57-1.56c0.61-1.52-0.2-3.46-1.8-4.35
			c-38.14-21.24-74.73-45.71-108.27-72.34c-1.4-1.11-3.07-0.89-3.73,0.51c-0.66,1.39-0.06,3.43,1.34,4.55
			c33.56,26.8,70.22,51.41,108.46,72.76C418.63,713.39,419.12,713.54,419.59,713.57z"/>
		<path class="st0" d="M473.83,741.63c0.48,0.23,0.98,0.33,1.45,0.33c1.14-0.01,2.15-0.65,2.55-1.75c0.57-1.55-0.31-3.42-1.95-4.19
			c-15.72-7.34-31.31-15.17-46.69-23.5c-1.6-0.87-3.39-0.35-3.99,1.17c-0.6,1.52,0.21,3.46,1.81,4.33
			C442.43,726.39,458.07,734.26,473.83,741.63z"/>
		<path class="st0" d="M1169.16,1023.28c-0.9-0.67-1.79-1.34-2.68-2c-1.32-1-2.95-0.54-3.63,1c-0.68,1.54-0.16,3.59,1.16,4.57
			c0.9,0.66,1.78,1.32,2.68,1.99c0.38,0.29,0.8,0.45,1.21,0.5c0.98,0.12,1.94-0.42,2.42-1.5
			C1171,1026.31,1170.48,1024.28,1169.16,1023.28z"/>
		<path class="st0" d="M926.21,869.04c1.08-0.13,2.04-0.9,2.41-2.07c0.53-1.66-0.34-3.52-1.92-4.14
			c-59.48-23.33-120.37-40.57-181.8-57.12c-1.64-0.44-3.33,0.53-3.79,2.17c-0.45,1.64,0.5,3.33,2.14,3.77
			c61.42,16.59,122.23,33.88,181.57,57.21C925.28,869.04,925.76,869.09,926.21,869.04z"/>
		<path class="st0" d="M1108.85,957.26c-54.02-35.87-112.62-66.68-172.95-90.79c-1.57-0.63-3.28,0.2-3.81,1.87
			c-0.53,1.67,0.33,3.53,1.9,4.16c60.18,24.09,118.6,54.84,172.5,90.51c0.41,0.27,0.85,0.42,1.28,0.45
			c1.02,0.07,1.99-0.52,2.45-1.64C1110.88,960.24,1110.26,958.2,1108.85,957.26z"/>
		<path class="st0" d="M1178.98,1007.6c-19.65-15.15-39.87-29.93-60.79-44.09c-1.4-0.95-3.07-0.43-3.72,1.15
			c-0.65,1.59-0.04,3.63,1.35,4.57c20.88,14.08,41.08,28.77,60.72,43.8c0.39,0.3,0.8,0.47,1.2,0.53c0.98,0.14,1.92-0.36,2.39-1.42
			C1180.81,1010.65,1180.29,1008.61,1178.98,1007.6z"/>
		<path class="st0" d="M735.11,809.1c1.1-0.23,2.04-1.05,2.36-2.21c0.46-1.64-0.5-3.33-2.14-3.77
			c-52.08-14.05-104.75-28.2-157.38-46.49c-1.65-0.57-3.4,0.26-3.9,1.86c-0.5,1.6,0.44,3.37,2.1,3.95
			c52.74,18.34,105.45,32.53,157.53,46.62C734.16,809.18,734.65,809.2,735.11,809.1z"/>
		<path class="st0" d="M275.88,589.85c66.77,60.08,149.1,111.8,233.96,147.16c0.48,0.21,0.98,0.29,1.45,0.26
			c1.13-0.06,2.12-0.75,2.5-1.86c0.53-1.59-0.37-3.42-2.01-4.12c-84.66-35.24-166.67-86.68-233.55-146.35
			c-1.31-1.15-2.89-0.98-3.54,0.37C274.05,586.66,274.58,588.69,275.88,589.85z"/>
		<path class="st0" d="M518.95,740.8c15.8,6.51,31.67,12.56,47.55,18.23c0.49,0.18,0.97,0.22,1.45,0.17c1.13-0.13,2.1-0.87,2.45-2
			c0.5-1.6-0.43-3.37-2.09-3.96c-15.86-5.65-31.69-11.69-47.45-18.17c-1.65-0.68-3.4,0.05-3.94,1.64
			C516.4,738.29,517.3,740.12,518.95,740.8z"/>
		<path class="st0" d="M405.42,747.71c1.15,0.1,2.19-0.44,2.63-1.48c0.63-1.48-0.18-3.43-1.8-4.34
			c-39.41-22.33-77.13-48.25-111.1-76.53c-1.39-1.16-3.06-1.01-3.73,0.34c-0.67,1.35-0.08,3.39,1.31,4.56
			c33.95,28.46,71.73,54.53,111.23,76.98C404.45,747.52,404.95,747.67,405.42,747.71z"/>
		<path class="st0" d="M641.69,837.17c-1.66-0.49-3.43,0.4-3.94,2.01c-0.51,1.6,0.42,3.3,2.09,3.8
			c21.66,6.43,43.19,12.51,64.54,18.52c0.48,0.14,0.97,0.14,1.44,0.06c1.12-0.22,2.09-1.02,2.45-2.17c0.51-1.63-0.42-3.33-2.06-3.78
			C684.86,849.62,663.34,843.57,641.69,837.17z"/>
		<path class="st0" d="M921.27,932.44c1.08-0.13,2.06-0.9,2.47-2.11c0.58-1.7-0.2-3.6-1.74-4.25
			c-66.54-28.01-135.57-48.16-206.25-67.82c-1.64-0.45-3.38,0.49-3.88,2.12c-0.5,1.63,0.41,3.32,2.05,3.79
			c70.67,19.75,139.6,40.02,205.98,68.07C920.36,932.43,920.82,932.5,921.27,932.44z"/>
		<path class="st0" d="M932.21,930.42c-1.53-0.66-3.25,0.19-3.84,1.89c-0.58,1.7,0.18,3.61,1.71,4.28
			c10.24,4.43,20.41,9.02,30.5,13.78c0.44,0.21,0.9,0.28,1.35,0.25c1.07-0.09,2.06-0.84,2.49-2.05c0.61-1.7-0.12-3.66-1.63-4.37
			C952.67,939.44,942.48,934.84,932.21,930.42z"/>
		<path class="st0" d="M614.74,829.01c-1.67-0.52-3.45,0.35-3.97,1.94c-0.52,1.59,0.42,3.31,2.09,3.83
			c5.75,1.79,11.49,3.55,17.23,5.28c0.5,0.15,0.99,0.17,1.46,0.1c1.14-0.18,2.12-0.96,2.49-2.09c0.51-1.6-0.43-3.3-2.1-3.8
			C626.23,832.54,620.49,830.79,614.74,829.01z"/>
		<path class="st0" d="M261.62,642.66c7.66,7.2,15.55,14.3,23.67,21.29c0.4,0.35,0.83,0.58,1.25,0.7c1.01,0.3,1.97-0.06,2.45-1.01
			c0.66-1.35,0.09-3.39-1.29-4.56c-8.13-6.94-16.03-14-23.72-21.15c-1.3-1.21-2.88-1.14-3.52,0.17
			C259.81,639.39,260.33,641.44,261.62,642.66z"/>
		<path class="st0" d="M604.58,831.83c1.15-0.16,2.14-0.92,2.51-2.04c0.52-1.59-0.42-3.31-2.09-3.84
			c-63.27-19.95-128.02-44.94-189.76-79.04c-1.63-0.9-3.46-0.43-4.08,1.06c-0.63,1.49,0.18,3.42,1.81,4.33
			c61.89,34.29,126.8,59.37,190.14,79.41C603.61,831.87,604.11,831.9,604.58,831.83z"/>
		<path class="st0" d="M970.81,955.26c42.33,20.5,83.1,44.08,121.84,69.43c0.4,0.26,0.83,0.4,1.26,0.41
			c1.02,0.04,2.01-0.61,2.5-1.77c0.7-1.64,0.15-3.71-1.22-4.61c-38.81-25.47-79.7-49.12-122.14-69.63c-1.5-0.73-3.22,0.07-3.83,1.77
			C968.6,952.56,969.32,954.53,970.81,955.26z"/>
		<path class="st0" d="M1147.22,1054.47c-14-10.02-28.21-19.9-42.69-29.57c-1.36-0.91-3.04-0.32-3.74,1.32
			c-0.7,1.64-0.17,3.71,1.2,4.61c14.46,9.61,28.65,19.44,42.65,29.4c0.38,0.28,0.81,0.42,1.22,0.46c0.99,0.08,1.96-0.52,2.47-1.64
			C1149.04,1057.46,1148.54,1055.41,1147.22,1054.47z"/>
		<path class="st0" d="M258.09,661.18c26.9,25.71,57.08,50.12,89.43,72.09c0.46,0.31,0.94,0.5,1.4,0.59
			c1.12,0.2,2.16-0.24,2.63-1.24c0.67-1.42-0.06-3.42-1.61-4.47c-32.31-21.85-62.5-46.11-89.49-71.66c-1.3-1.23-2.88-1.18-3.52,0.11
			C256.28,657.89,256.8,659.94,258.09,661.18z"/>
		<path class="st0" d="M606.83,852.92c44.18,13.92,87.69,25.89,130.34,38.3c0.47,0.14,0.97,0.15,1.43,0.07
			c1.11-0.21,2.1-1.03,2.47-2.19c0.53-1.64-0.36-3.36-1.98-3.83c-42.68-12.35-86.17-24.24-130.31-38.09
			c-1.68-0.53-3.47,0.33-4.01,1.91C604.23,850.68,605.16,852.38,606.83,852.92z"/>
		<path class="st0" d="M799.7,903.48c-16.92-5.34-33.98-10.45-51.16-15.46c-1.62-0.47-3.36,0.48-3.89,2.13
			c-0.53,1.64,0.35,3.36,1.96,3.84c17.17,5.04,34.21,10.18,51.11,15.55c0.47,0.15,0.95,0.17,1.41,0.09c1.11-0.2,2.08-1.02,2.47-2.2
			C802.15,905.75,801.3,903.99,799.7,903.48z"/>
		<path class="st0" d="M1133.32,1068.82c-96.2-68.87-206.54-126.13-323.06-161.97c-1.59-0.52-3.32,0.43-3.87,2.1
			c-0.55,1.68,0.29,3.45,1.88,3.96c116.37,36.03,226.24,93.35,322.37,161.78c0.39,0.27,0.81,0.41,1.22,0.43
			c1,0.06,1.99-0.56,2.51-1.71C1135.13,1071.8,1134.65,1069.74,1133.32,1068.82z"/>
		<path class="st0" d="M465.6,793.04c-1.68-0.78-3.53-0.19-4.14,1.32c-0.61,1.51,0.26,3.37,1.95,4.15
			c44.39,20.58,89.35,37.06,133.61,51.28c0.5,0.16,1,0.19,1.48,0.13c1.15-0.15,2.17-0.91,2.55-2.02c0.54-1.58-0.39-3.3-2.07-3.84
			C554.77,829.92,509.88,813.52,465.6,793.04z"/>
		<path class="st0" d="M357.94,733.49c-1.57-1.03-3.37-0.72-4.04,0.7c-0.67,1.42,0.06,3.42,1.63,4.46
			c13.42,8.88,27.17,17.35,41.13,25.38c0.48,0.28,0.98,0.44,1.46,0.48c1.16,0.11,2.21-0.4,2.67-1.44c0.64-1.47-0.16-3.41-1.79-4.34
			C385.06,750.74,371.34,742.32,357.94,733.49z"/>
		<path class="st0" d="M405.71,769.15c15.76,8.8,31.77,17.04,47.89,24.74c0.5,0.23,1,0.35,1.49,0.36c1.18,0.02,2.22-0.58,2.66-1.64
			c0.61-1.51-0.26-3.37-1.94-4.17c-16.09-7.67-32.05-15.87-47.78-24.62c-1.64-0.92-3.49-0.47-4.13,1
			C403.26,766.3,404.07,768.23,405.71,769.15z"/>
		<path class="st0" d="M894.6,959.39c-57.36-23.83-116.79-42.37-177.96-60.14c-1.63-0.47-3.39,0.46-3.95,2.09
			c-0.56,1.63,0.31,3.34,1.94,3.82c61.14,17.88,120.47,36.55,177.7,60.44c0.45,0.19,0.91,0.24,1.37,0.18
			c1.09-0.14,2.09-0.93,2.53-2.14C896.85,961.93,896.13,960.03,894.6,959.39z"/>
		<path class="st0" d="M1066.95,1057.12c0.4,0.25,0.83,0.38,1.26,0.38c1.03,0,2.04-0.68,2.57-1.88c0.75-1.69,0.25-3.77-1.13-4.63
			c-52.31-33.27-108.04-63.36-166.19-87.88c-1.52-0.64-3.26,0.23-3.89,1.95c-0.63,1.72,0.08,3.63,1.6,4.28
			C959.19,993.91,1014.74,1023.98,1066.95,1057.12z"/>
		<path class="st0" d="M1121.8,1085.4c-14.53-9.93-29.25-19.75-44.22-29.37c-1.36-0.87-3.07-0.22-3.82,1.48
			c-0.75,1.69-0.26,3.77,1.1,4.64c14.94,9.57,29.64,19.34,44.16,29.22c0.38,0.26,0.82,0.4,1.23,0.41c1.01,0.03,2.01-0.6,2.56-1.77
			C1123.58,1088.37,1123.12,1086.3,1121.8,1085.4z"/>
		<path class="st0" d="M255.21,680.24c94.05,93.02,228.41,155.34,348.01,191.57c0.01,0,0.02,0.01,0.03,0.01
			c16.15,5.14,32.19,10.02,48.12,14.76c0.02,0,0.03,0,0.04,0.01c3.19,0.95,6.38,1.9,9.56,2.84c0.02,0,0.03,0.02,0.05,0.02
			c14.79,4.37,29.49,8.65,44.08,12.92c0.48,0.15,0.97,0.16,1.44,0.07c1.13-0.2,2.13-1.01,2.52-2.16c0.55-1.63-0.33-3.33-1.96-3.81
			c-11.31-3.29-22.68-6.58-34.1-9.92c-0.02,0-0.03-0.02-0.05-0.02c-138.1-37.56-301.98-99.43-415.39-210.95
			c-1.3-1.25-2.87-1.22-3.52,0.06C253.4,676.93,253.91,678.99,255.21,680.24z"/>
		<path class="st0" d="M1075.74,1130.87c-15.92-10.29-32.01-20.48-48.35-30.46c-1.36-0.83-3.15-0.09-4,1.64
			c-0.85,1.74-0.45,3.81,0.9,4.64c16.3,9.95,32.36,20.1,48.26,30.35c0.39,0.25,0.82,0.37,1.25,0.36c1.05-0.01,2.12-0.71,2.74-1.91
			C1077.43,1133.8,1077.06,1131.73,1075.74,1130.87z"/>
		<path class="st0" d="M846.19,1014.6c1.11-0.14,2.16-0.94,2.67-2.15c0.72-1.71,0.08-3.62-1.43-4.23
			c-47.24-19.47-96.1-35.92-146.63-51.78c-1.62-0.51-3.45,0.39-4.1,2.01c-0.65,1.61,0.13,3.35,1.75,3.86
			c50.48,15.98,99.25,32.55,146.37,52.12C845.26,1014.61,845.73,1014.66,846.19,1014.6z"/>
		<path class="st0" d="M641.41,944.36c16.04,5.05,31.91,10.01,47.61,14.96c0.48,0.16,0.97,0.17,1.45,0.1
			c1.15-0.18,2.21-0.96,2.66-2.1c0.64-1.62-0.14-3.34-1.77-3.85c-15.72-4.92-31.6-9.83-47.64-14.85c-1.66-0.52-3.52,0.34-4.15,1.93
			C638.93,942.13,639.76,943.83,641.41,944.36z"/>
		<path class="st0" d="M870.35,1024.94c1.1-0.13,2.16-0.92,2.68-2.14c0.74-1.73,0.13-3.66-1.37-4.31
			c-5.13-2.24-10.27-4.44-15.43-6.61c-1.5-0.63-3.31,0.25-4.03,1.97c-0.72,1.72-0.1,3.62,1.4,4.26c5.15,2.18,10.28,4.39,15.39,6.64
			C869.42,1024.93,869.89,1024.99,870.35,1024.94z"/>
		<path class="st0" d="M1019.21,1103.16c1.06-0.03,2.13-0.76,2.73-1.99c0.85-1.74,0.43-3.81-0.93-4.64
			c-44.84-27.19-91.78-52.45-140.7-74.22c-1.49-0.67-3.29,0.21-4.03,1.93c-0.74,1.73-0.15,3.67,1.33,4.33
			c48.79,21.85,95.57,47.13,140.31,74.25C1018.33,1103.06,1018.77,1103.18,1019.21,1103.16z"/>
		<path class="st0" d="M250.65,741.23c48.28,47.78,110.36,88.93,173.49,120.18c0.01,0.01,0.02,0.02,0.04,0.02
			c69.33,34.55,139.61,58.3,206.22,79.44c0.49,0.15,0.99,0.19,1.48,0.12c1.17-0.16,2.23-0.92,2.69-2.03
			c0.64-1.58-0.19-3.28-1.86-3.81c-44.97-14.17-91.3-29.43-138.1-48.47c-0.02-0.01-0.04-0.03-0.06-0.03
			c-85.66-34.32-175.35-85.06-241.49-150c-1.32-1.28-2.92-1.32-3.58-0.06C248.82,737.87,249.34,739.93,250.65,741.23z"/>
		<path class="st0" d="M899.16,1014.33c1.09-0.12,2.13-0.9,2.63-2.13c0.72-1.73,0.08-3.69-1.41-4.36
			c-39.12-17.7-79.41-33.12-120.76-47.06c-1.57-0.54-3.36,0.4-4,2.06c-0.64,1.67,0.11,3.45,1.68,3.99
			c41.28,14.03,81.48,29.53,120.5,47.28C898.24,1014.32,898.71,1014.38,899.16,1014.33z"/>
		<path class="st0" d="M646.7,922.43c-0.61,1.59,0.24,3.29,1.9,3.8c40.83,12.56,80.68,24.47,119.55,37.5
			c0.46,0.16,0.95,0.18,1.41,0.11c1.12-0.18,2.14-0.99,2.6-2.17c0.64-1.67-0.13-3.44-1.71-3.97
			c-38.93-12.94-78.81-24.76-119.65-37.24C649.14,919.97,647.31,920.84,646.7,922.43z"/>
		<path class="st0" d="M300.28,759.64c-0.7,1.33-0.05,3.37,1.45,4.54c101.94,80.12,226.41,125.37,335.85,158.64
			c0.49,0.15,1,0.19,1.48,0.11c1.16-0.17,2.2-0.93,2.64-2.05c0.61-1.59-0.25-3.29-1.91-3.8
			c-109.48-33.03-233.55-78.11-335.52-157.75C302.76,758.18,300.98,758.31,300.28,759.64z"/>
		<path class="st0" d="M979.36,1055.13c0.42,0.22,0.86,0.32,1.31,0.3c1.07-0.06,2.11-0.81,2.66-2.04c0.77-1.74,0.25-3.79-1.17-4.57
			c-23.83-13.13-48.22-25.51-73.1-37.01c-1.48-0.69-3.26,0.17-3.98,1.91c-0.72,1.74-0.1,3.7,1.37,4.38
			C931.28,1029.61,955.6,1042.01,979.36,1055.13z"/>
		<path class="st0" d="M1092.28,1115.92c-17.84-11.72-35.89-23.3-54.3-34.58c-1.36-0.83-3.12-0.11-3.94,1.62
			c-0.81,1.73-0.37,3.81,1,4.64c18.36,11.25,36.39,22.78,54.21,34.44c0.39,0.25,0.81,0.37,1.24,0.38c1.03,0.01,2.08-0.68,2.67-1.87
			C1094.01,1118.87,1093.61,1116.79,1092.28,1115.92z"/>
		<path class="st0" d="M1028.76,1083.34c1.05-0.02,2.1-0.75,2.67-1.97c0.81-1.73,0.35-3.81-1.02-4.64
			c-13.16-7.97-26.49-15.77-40.02-23.34c-1.41-0.79-3.18-0.02-3.96,1.73c-0.78,1.75-0.27,3.79,1.13,4.59
			c13.49,7.57,26.79,15.35,39.92,23.3C1027.89,1083.24,1028.32,1083.35,1028.76,1083.34z"/>
		<path class="st0" d="M251.46,720.19c12.56,12.35,26.01,24.38,40.17,35.93c0.43,0.35,0.89,0.59,1.34,0.72
			c1.08,0.3,2.1-0.03,2.59-0.96c0.69-1.33,0.06-3.37-1.41-4.56c-14.19-11.48-27.67-23.43-40.3-35.71c-1.31-1.27-2.9-1.29-3.55-0.02
			C249.64,716.85,250.16,718.91,251.46,720.19z"/>
		<path class="st0" d="M692.42,912.6c-24.04-7.13-48.39-14.32-73.02-21.99c-1.67-0.52-3.51,0.33-4.09,1.91
			c-0.58,1.58,0.3,3.28,1.98,3.81c24.64,7.71,48.99,14.95,73.02,22.13c0.48,0.14,0.98,0.16,1.45,0.08c1.13-0.2,2.16-0.99,2.57-2.13
			C694.92,914.79,694.06,913.09,692.42,912.6z"/>
		<path class="st0" d="M607.52,893.25c0.49,0.15,1,0.2,1.49,0.13c1.17-0.16,2.2-0.9,2.62-2.02c0.58-1.57-0.31-3.28-1.99-3.81
			c-76.58-24.05-157.34-54.49-232.66-99.85c-1.64-0.98-3.51-0.63-4.19,0.79c-0.68,1.42,0.09,3.38,1.74,4.37
			C449.96,838.47,530.9,869.05,607.52,893.25z"/>
		<path class="st0" d="M253,699.9c32.26,31.6,70.19,61,110.67,86.3c0.48,0.3,0.98,0.48,1.46,0.55c1.17,0.18,2.24-0.28,2.72-1.28
			c0.68-1.42-0.09-3.38-1.71-4.4c-40.43-25.16-78.35-54.37-110.77-85.79c-1.3-1.26-2.88-1.25-3.53,0.02
			C251.19,696.57,251.7,698.63,253,699.9z"/>
		<path class="st0" d="M853.22,965.31c-48.94-18.87-99.38-34.48-151.25-49.87c-1.63-0.48-3.42,0.43-4.01,2.06
			c-0.58,1.62,0.27,3.34,1.9,3.82c51.84,15.49,102.21,31.22,151.05,50.17c0.45,0.17,0.92,0.22,1.38,0.15
			c1.09-0.16,2.11-0.96,2.57-2.17C855.49,967.77,854.76,965.9,853.22,965.31z"/>
		<path class="st0" d="M1107.58,1100.73c-28.61-19.16-57.91-37.94-88.26-55.61c-1.4-0.81-3.15-0.07-3.9,1.65
			c-0.75,1.73-0.24,3.79,1.16,4.61c30.27,17.64,59.5,36.34,88.1,55.41c0.39,0.26,0.81,0.39,1.24,0.39c1.02,0.02,2.05-0.64,2.61-1.82
			C1109.34,1103.69,1108.91,1101.62,1107.58,1100.73z"/>
		<path class="st0" d="M858.23,970.8c-0.65,1.71,0.07,3.58,1.6,4.19c51.56,20.34,101.35,44.5,148.76,71.77
			c0.41,0.24,0.86,0.34,1.3,0.32c1.06-0.04,2.08-0.77,2.62-2c0.76-1.73,0.22-3.79-1.2-4.6c-47.53-27.32-97.47-51.44-149.14-71.69
			C860.64,968.19,858.87,969.09,858.23,970.8z"/>
		<path class="st0" d="M1057.95,1145.53c-30.66-19.53-61.93-38.72-94.29-56.79c-1.39-0.78-3.21,0.01-4.07,1.76
			c-0.86,1.75-0.44,3.79,0.95,4.57c32.26,18.06,63.45,37.2,94.07,56.66c0.39,0.25,0.82,0.36,1.26,0.35
			c1.06-0.02,2.16-0.72,2.81-1.93C1059.59,1148.44,1059.27,1146.37,1057.95,1145.53z"/>
		<path class="st0" d="M693.24,974.92c-1.61-0.52-3.47,0.36-4.15,1.97c-0.68,1.61,0.06,3.33,1.67,3.87
			c50.31,16.38,98.77,33.37,145.51,53.24c0.44,0.19,0.9,0.24,1.37,0.18c1.11-0.14,2.18-0.92,2.72-2.14
			c0.76-1.72,0.17-3.62-1.33-4.25C792.17,1008.02,743.61,991.17,693.24,974.92z"/>
		<path class="st0" d="M515.85,918.37c-0.68,1.5,0.17,3.25,1.9,3.91C574,943.73,628.8,960.61,681.37,977.7
			c0.47,0.15,0.97,0.19,1.45,0.12c1.16-0.17,2.23-0.94,2.71-2.08c0.68-1.61-0.08-3.34-1.7-3.86
			c-52.63-16.96-107.44-33.71-163.65-55.04C518.47,916.2,516.53,916.87,515.85,918.37z"/>
		<path class="st0" d="M510.64,916.36c0.68-1.5-0.18-3.25-1.91-3.93c-29.9-11.67-60.11-24.74-89.97-39.75
			c-1.72-0.86-3.69-0.42-4.4,1.02c-0.7,1.43,0.12,3.3,1.85,4.18c29.9,15.09,60.14,28.23,90.07,39.97c0.51,0.2,1.03,0.29,1.55,0.26
			C509.05,918.06,510.16,917.42,510.64,916.36z"/>
		<path class="st0" d="M844.98,1037.72c5.11,2.21,10.19,4.46,15.26,6.73c0.44,0.2,0.9,0.25,1.36,0.21c1.1-0.13,2.18-0.91,2.73-2.13
			c0.78-1.73,0.22-3.67-1.27-4.32c-5.08-2.27-10.18-4.5-15.3-6.7c-1.49-0.63-3.32,0.23-4.09,1.95
			C842.91,1035.17,843.49,1037.07,844.98,1037.72z"/>
		<path class="st0" d="M954.15,1091.09c1.08-0.07,2.17-0.82,2.78-2.06c0.85-1.75,0.41-3.79-0.99-4.56
			c-27.38-15.07-55.48-29.28-84.28-42.38c-1.47-0.67-3.3,0.19-4.08,1.92c-0.78,1.73-0.24,3.67,1.23,4.34
			c28.72,13.15,56.73,27.38,84.03,42.46C953.25,1091.02,953.69,1091.11,954.15,1091.09z"/>
		<path class="st0" d="M404.49,871.85c0.5,0.26,1.03,0.41,1.54,0.46c1.23,0.1,2.36-0.41,2.85-1.42c0.7-1.43-0.12-3.31-1.84-4.2
			c-55.9-29.04-110.43-65.89-153.99-108.23c-1.34-1.29-2.95-1.33-3.62-0.08c-0.67,1.25-0.14,3.32,1.18,4.62
			C293.93,805.59,348.53,842.66,404.49,871.85z"/>
		<path class="st0" d="M872.52,1073.41c1.11-0.1,2.21-0.88,2.8-2.1c0.84-1.73,0.35-3.7-1.1-4.39
			c-38.1-18.21-77.45-34.48-118.1-49.37c-1.54-0.56-3.41,0.31-4.16,1.97c-0.75,1.66-0.12,3.45,1.43,4.02
			c40.56,14.99,79.81,31.36,117.79,49.63C871.6,1073.37,872.06,1073.45,872.52,1073.41z"/>
		<path class="st0" d="M509.98,939.04c82.35,31.78,160.85,54.2,234.4,81.2c0.46,0.17,0.94,0.21,1.41,0.14
			c1.14-0.16,2.23-0.94,2.76-2.1c0.75-1.65,0.1-3.45-1.46-4.01c-73.71-26.8-152.26-49.01-234.58-80.62c-1.72-0.67-3.7-0.01-4.4,1.48
			C507.42,936.62,508.24,938.37,509.98,939.04z"/>
		<path class="st0" d="M500.04,934.8c1.24-0.03,2.37-0.67,2.86-1.71c0.7-1.48-0.14-3.23-1.87-3.92
			c-85.98-33.65-178.6-82.54-247.14-148.49c-1.36-1.29-2.99-1.34-3.67-0.1c-0.68,1.25-0.15,3.32,1.2,4.63
			c68.19,66.36,161.08,115.48,247.07,149.32C498.99,934.73,499.52,934.81,500.04,934.8z"/>
		<path class="st0" d="M882.66,1070.99c-1.44-0.7-3.29,0.13-4.14,1.87c-0.84,1.73-0.37,3.7,1.07,4.4c4.93,2.42,9.85,4.86,14.75,7.34
			c0.42,0.21,0.88,0.28,1.33,0.25c1.1-0.09,2.2-0.86,2.82-2.09c0.86-1.74,0.4-3.73-1.03-4.45
			C892.54,1075.84,887.61,1073.4,882.66,1070.99z"/>
		<path class="st0" d="M1039.11,1159.54c-27.84-17.51-56.14-34.76-85.32-51.17c-1.38-0.78-3.23,0.01-4.14,1.75
			c-0.91,1.74-0.54,3.78,0.84,4.56c29.08,16.41,57.3,33.61,85.08,51.06c0.38,0.25,0.82,0.35,1.27,0.34
			c1.06-0.02,2.21-0.74,2.89-1.94C1040.71,1162.43,1040.42,1160.36,1039.11,1159.54z"/>
		<path class="st0" d="M905.76,1082.52c-1.42-0.72-3.28,0.09-4.14,1.83c-0.87,1.74-0.42,3.73,0.99,4.46
			c13.59,6.99,27.01,14.2,40.26,21.58c0.4,0.23,0.86,0.32,1.31,0.29c1.09-0.07,2.21-0.82,2.84-2.05c0.91-1.74,0.51-3.78-0.88-4.55
			C932.85,1096.7,919.39,1089.5,905.76,1082.52z"/>
		<path class="st0" d="M460.33,935.21c-0.73,1.45,0.09,3.24,1.84,3.99c65.67,28.44,129.8,49.24,190.32,69.96
			c0.47,0.16,0.98,0.21,1.47,0.14c1.18-0.15,2.28-0.89,2.82-2c0.75-1.58,0.05-3.3-1.57-3.85c-60.6-20.55-124.75-41.21-190.39-69.5
			C463.06,933.21,461.06,933.76,460.33,935.21z"/>
		<path class="st0" d="M453.57,935.09c1.25,0.03,2.4-0.55,2.92-1.56c0.73-1.45-0.1-3.24-1.84-4.01
			c-66.42-29.32-134.88-68.23-189.8-117.34c-1.43-1.27-3.15-1.29-3.85-0.03c-0.7,1.26-0.13,3.33,1.29,4.61
			c54.69,49.41,123.27,88.52,189.71,117.99C452.51,934.97,453.05,935.08,453.57,935.09z"/>
		<path class="st0" d="M660.34,1008.53c-0.75,1.58-0.06,3.31,1.55,3.86c51.07,17.46,99.93,35.28,146.88,55.8
			c0.43,0.19,0.9,0.25,1.37,0.2c1.13-0.13,2.24-0.89,2.84-2.09c0.85-1.69,0.32-3.58-1.16-4.23
			c-47.08-20.41-96.06-38.09-147.21-55.41C663,1006.11,661.09,1006.95,660.34,1008.53z"/>
		<path class="st0" d="M1018.82,1173.03c-47.54-29.63-96.71-58.48-148.63-83.99c-1.43-0.7-3.31,0.12-4.2,1.84
			c-0.89,1.72-0.46,3.68,0.96,4.39c51.74,25.58,100.73,54.41,148.15,83.92c0.38,0.24,0.82,0.35,1.27,0.33
			c1.08-0.02,2.25-0.74,2.97-1.94C1020.37,1175.88,1020.13,1173.84,1018.82,1173.03z"/>
		<path class="st0" d="M860.4,1091.61c1.11-0.1,2.24-0.87,2.87-2.08c0.89-1.72,0.44-3.68-1-4.37
			c-13.78-6.67-27.73-13.12-41.85-19.34c-1.47-0.65-3.35,0.2-4.2,1.9c-0.84,1.69-0.35,3.59,1.12,4.24
			c14.08,6.25,27.98,12.73,41.72,19.42C859.48,1091.58,859.93,1091.66,860.4,1091.61z"/>
		<path class="st0" d="M316.96,921.6c1.21,0.26,2.35-0.1,2.9-1.04c0.77-1.32,0.04-3.28-1.62-4.39
			c-17.33-11.56-34.09-23.96-49.78-37.15c-1.5-1.26-3.3-1.27-4.04-0.01c-0.74,1.26-0.12,3.31,1.37,4.59
			c15.63,13.27,32.36,25.73,49.67,37.35C315.94,921.27,316.46,921.49,316.96,921.6z"/>
		<path class="st0" d="M622.36,1059.93c1.19-0.1,2.36-0.8,2.96-1.88c0.86-1.53,0.25-3.24-1.35-3.83
			c-49.83-18.4-102.4-36.87-156.72-59.87c-1.73-0.73-3.78-0.18-4.57,1.24c-0.79,1.42-0.03,3.17,1.71,3.91
			c54.28,23.12,106.79,41.71,156.51,60.24C621.36,1059.92,621.86,1059.98,622.36,1059.93z"/>
		<path class="st0" d="M687.44,1085.21c0.45,0.18,0.94,0.24,1.42,0.19c1.17-0.11,2.33-0.83,2.97-1.94c0.9-1.58,0.39-3.35-1.14-3.95
			c-18.79-7.41-37.94-14.64-57.46-21.87c-1.58-0.59-3.56,0.18-4.41,1.71c-0.85,1.53-0.27,3.25,1.32,3.84
			C649.61,1070.47,668.71,1077.75,687.44,1085.21z"/>
		<path class="st0" d="M859.76,1165.43c1.12-0.06,2.33-0.77,3.09-1.94c1.08-1.65,0.84-3.6-0.52-4.34
			c-51.02-27.81-104.67-52.98-161.55-75.63c-1.52-0.61-3.47,0.18-4.37,1.77c-0.9,1.58-0.42,3.35,1.1,3.96
			c56.7,22.81,110.15,48.1,160.94,75.9C858.84,1165.36,859.29,1165.46,859.76,1165.43z"/>
		<path class="st0" d="M439.14,982.04c-1.75-0.79-3.79-0.3-4.59,1.11c-0.78,1.41-0.01,3.19,1.73,3.98c5.99,2.73,11.98,5.39,17.95,8
			c0.51,0.22,1.05,0.34,1.58,0.34c1.27,0.02,2.45-0.54,3.01-1.54c0.79-1.42,0.02-3.17-1.72-3.93
			C451.12,987.41,445.14,984.76,439.14,982.04z"/>
		<path class="st0" d="M323.04,922.66c-0.77,1.32-0.04,3.29,1.63,4.37c32.83,21.24,67.29,39.47,101.45,55.42
			c0.51,0.24,1.05,0.37,1.58,0.39c1.26,0.06,2.45-0.47,3.01-1.46c0.79-1.41,0.01-3.19-1.74-4c-34.17-15.88-68.63-34.03-101.5-55.16
			C325.8,921.14,323.82,921.33,323.04,922.66z"/>
		<path class="st0" d="M936.95,1201.88c-21.39-12.78-43.14-25.42-65.41-37.69c-1.35-0.75-3.31,0-4.4,1.66
			c-1.08,1.65-0.87,3.59,0.47,4.33c22.17,12.26,43.82,24.86,65.12,37.58c0.38,0.22,0.82,0.33,1.28,0.32
			c1.11-0.03,2.35-0.7,3.18-1.85C938.36,1204.61,938.25,1202.66,936.95,1201.88z"/>
		<path class="st0" d="M948.72,1208.94c-0.98-0.59-1.94-1.17-2.92-1.76c-1.29-0.78-3.29-0.08-4.45,1.53
			c-1.17,1.62-1.09,3.55,0.2,4.33c0.97,0.58,1.94,1.17,2.91,1.75c0.38,0.23,0.82,0.33,1.28,0.32c1.11-0.02,2.36-0.69,3.19-1.83
			C950.11,1211.67,950.01,1209.72,948.72,1208.94z"/>
		<path class="st0" d="M419.2,956.1c-0.77,1.41,0.02,3.22,1.77,4.06c46.05,21.97,91.83,39.69,135.79,55.85
			c0.49,0.18,1.01,0.25,1.52,0.21c1.22-0.08,2.38-0.75,2.94-1.8c0.79-1.49,0.06-3.2-1.61-3.81c-44-16.05-89.8-33.68-135.85-55.54
			C422.01,954.23,419.97,954.69,419.2,956.1z"/>
		<path class="st0" d="M791.22,1099.38c-68.99-31.63-142.61-56.88-221.88-85.24c-1.67-0.61-3.65,0.12-4.44,1.62
			c-0.79,1.49-0.08,3.2,1.59,3.81c79.18,28.55,152.61,54.05,221.36,85.82c0.42,0.19,0.89,0.27,1.36,0.22
			c1.14-0.1,2.29-0.85,2.96-2.02C793.1,1101.93,792.67,1100.04,791.22,1099.38z"/>
		<path class="st0" d="M973.72,1197.88c-54.74-33.48-111.9-65.96-172.89-94.09c-1.44-0.66-3.37,0.14-4.31,1.8
			c-0.94,1.66-0.54,3.55,0.9,4.22c60.78,28.26,117.68,60.73,172.22,94.06c0.38,0.23,0.82,0.33,1.28,0.32
			c1.1-0.03,2.32-0.71,3.12-1.88C975.16,1200.66,975.02,1198.67,973.72,1197.88z"/>
		<path class="st0" d="M410.76,955.21c0.51,0.25,1.05,0.39,1.58,0.43c1.26,0.09,2.44-0.43,2.98-1.41c0.77-1.4-0.03-3.22-1.78-4.08
			c-6.01-2.94-12.01-5.95-17.99-9.04c-1.74-0.9-3.77-0.51-4.55,0.87c-0.77,1.38,0.02,3.24,1.76,4.15
			C398.75,949.23,404.75,952.26,410.76,955.21z"/>
		<path class="st0" d="M325.59,906.74c1.21,0.24,2.35-0.13,2.89-1.07c0.77-1.34,0.02-3.3-1.64-4.38
			c-22.59-14.79-44.31-30.97-64.09-48.4c-1.46-1.28-3.21-1.31-3.93-0.06c-0.72,1.25-0.14,3.33,1.32,4.61
			c19.69,17.53,41.36,33.8,63.94,48.67C324.57,906.43,325.09,906.64,325.59,906.74z"/>
		<path class="st0" d="M382.63,940.78c0.51,0.27,1.05,0.43,1.57,0.49c1.26,0.14,2.43-0.34,2.97-1.31c0.77-1.38-0.02-3.25-1.76-4.17
			c-16.66-8.87-33.19-18.38-49.32-28.57c-1.68-1.06-3.66-0.85-4.43,0.49c-0.76,1.34-0.02,3.29,1.66,4.36
			C349.45,922.32,365.96,931.87,382.63,940.78z"/>
		<path class="st0" d="M832.61,1102.24c1.12-0.1,2.27-0.86,2.92-2.05c0.92-1.7,0.5-3.63-0.94-4.31
			c-54-25.81-110.67-47.75-170.48-68.68c-1.59-0.56-3.52,0.26-4.31,1.84c-0.79,1.57-0.14,3.3,1.45,3.87
			c59.7,21.09,116.2,43.2,170.02,69.11C831.68,1102.21,832.14,1102.28,832.61,1102.24z"/>
		<path class="st0" d="M997.05,1185.85c-49.18-30.34-100.15-59.89-154.12-85.96c-1.43-0.69-3.33,0.12-4.26,1.82
			c-0.93,1.69-0.53,3.63,0.9,4.32c53.77,26.15,104.54,55.67,153.57,85.9c0.38,0.24,0.82,0.34,1.28,0.33
			c1.09-0.03,2.29-0.73,3.05-1.92C998.56,1188.67,998.36,1186.65,997.05,1185.85z"/>
		<path class="st0" d="M495.36,966.42c-1.73-0.69-3.74-0.08-4.49,1.38c-0.75,1.45,0.05,3.21,1.78,3.9
			c55.12,22.15,108.47,39.93,159.27,57.9c0.47,0.17,0.97,0.21,1.46,0.16c1.18-0.13,2.31-0.87,2.86-1.98
			c0.79-1.57,0.12-3.3-1.48-3.86C603.89,1006.1,550.48,988.45,495.36,966.42z"/>
		<path class="st0" d="M424.29,941.49c1.26,0.07,2.42-0.46,2.95-1.46c0.75-1.42-0.06-3.24-1.81-4.07
			c-58.95-28.03-118.69-64.05-166.85-108.12c-1.42-1.3-3.12-1.33-3.83-0.09c-0.7,1.25-0.15,3.32,1.27,4.62
			c47.92,44.33,107.73,80.53,166.68,108.7C423.23,941.32,423.77,941.46,424.29,941.49z"/>
		<path class="st0" d="M432.37,945.65c16.77,7.83,33.54,15.1,50.18,21.95c0.51,0.21,1.05,0.3,1.57,0.3
			c1.25-0.01,2.41-0.62,2.94-1.64c0.75-1.45-0.05-3.21-1.79-3.92c-16.65-6.81-33.41-14.05-50.17-21.84c-1.75-0.8-3.77-0.33-4.52,1.1
			C429.81,943.02,430.63,944.83,432.37,945.65z"/>
		<path class="st0" d="M308.27,936.35c1.21,0.28,2.35-0.08,2.9-1c0.78-1.31,0.06-3.28-1.59-4.4c-11.51-7.83-22.77-16.05-33.58-24.64
			c-1.55-1.23-3.42-1.21-4.16,0.06c-0.75,1.27-0.12,3.31,1.43,4.55c10.78,8.64,22,16.9,33.5,24.77
			C307.26,936.02,307.77,936.24,308.27,936.35z"/>
		<path class="st0" d="M551.19,1047.47c-1.65-0.63-3.67,0.05-4.52,1.51c-0.84,1.46-0.19,3.15,1.46,3.79
			c21.45,8.2,42.44,16.09,62.99,23.95c0.46,0.17,0.96,0.24,1.46,0.2c1.2-0.09,2.37-0.77,3-1.83c0.89-1.51,0.31-3.22-1.27-3.82
			C593.71,1063.47,572.67,1055.63,551.19,1047.47z"/>
		<path class="st0" d="M811.24,1164.36c1.14-0.06,2.35-0.76,3.11-1.9c1.08-1.62,0.84-3.52-0.54-4.22
			c-59.36-30.94-122.4-57.81-190.31-83.47c-1.57-0.6-3.57,0.14-4.45,1.65c-0.89,1.51-0.33,3.22,1.24,3.82
			c67.75,25.83,130.53,52.89,189.63,83.85C810.31,1164.3,810.77,1164.38,811.24,1164.36z"/>
		<path class="st0" d="M822.91,1162.98c-1.36-0.72-3.35,0.02-4.44,1.64c-1.08,1.62-0.87,3.51,0.49,4.22
			c9.1,4.81,18.12,9.68,27.05,14.6c0.39,0.22,0.84,0.31,1.31,0.29c1.13-0.05,2.35-0.73,3.15-1.87c1.13-1.61,0.95-3.53-0.39-4.26
			C841.11,1172.67,832.05,1167.79,822.91,1162.98z"/>
		<path class="st0" d="M524.29,1037.16c-1.68-0.65-3.71-0.01-4.54,1.43c-0.83,1.44-0.15,3.15,1.53,3.8
			c5.76,2.25,11.49,4.47,17.19,6.67c0.49,0.18,1.01,0.27,1.52,0.24c1.23-0.06,2.41-0.69,3.01-1.72c0.84-1.46,0.17-3.16-1.49-3.79
			C535.8,1041.61,530.06,1039.4,524.29,1037.16z"/>
		<path class="st0" d="M513.03,1038.81c1.24-0.04,2.43-0.65,3.02-1.67c0.83-1.44,0.13-3.15-1.56-3.81
			c-63.54-25.01-132.07-54.65-195.72-96.25c-1.67-1.09-3.65-0.93-4.43,0.39c-0.78,1.31-0.06,3.28,1.61,4.38
			c63.57,41.8,132.11,71.55,195.55,96.7C511.99,1038.75,512.51,1038.82,513.03,1038.81z"/>
		<path class="st0" d="M921.96,1218.9c-20.54-12.24-41.43-24.39-62.79-36.28c-1.33-0.74-3.32-0.03-4.46,1.59
			c-1.13,1.61-0.98,3.51,0.34,4.25c21.27,11.86,42.05,23.96,62.49,36.13c0.38,0.22,0.81,0.32,1.28,0.32
			c1.12-0.01,2.39-0.67,3.25-1.77C923.3,1221.56,923.24,1219.66,921.96,1218.9z"/>
		<path class="st0" d="M511.8,1058.51c43.86,17.5,85.81,33.29,125.83,49.59c0.45,0.19,0.94,0.24,1.43,0.21
			c1.18-0.08,2.38-0.76,3.05-1.82c0.94-1.51,0.48-3.24-1.06-3.85c-40.15-16.2-82.22-31.89-126.15-49.3
			c-1.67-0.66-3.72-0.05-4.57,1.38C509.48,1056.15,510.14,1057.84,511.8,1058.51z"/>
		<path class="st0" d="M697.39,1126.22c-15.54-6.79-31.36-13.44-47.47-19.99c-1.52-0.62-3.52,0.11-4.47,1.62
			c-0.94,1.51-0.49,3.23,1.02,3.86c16.05,6.6,31.82,13.27,47.3,20.1c0.43,0.19,0.91,0.26,1.39,0.23c1.16-0.08,2.36-0.76,3.07-1.85
			C699.23,1128.64,698.85,1126.86,697.39,1126.22z"/>
		<path class="st0" d="M893.3,1227.6c-58.09-34.24-119.67-67.72-186.23-97.11c-1.45-0.65-3.45,0.09-4.45,1.64
			c-1.01,1.55-0.65,3.33,0.79,3.97c66.3,29.53,127.56,63.03,185.34,97c0.37,0.22,0.81,0.31,1.28,0.31c1.12-0.01,2.41-0.63,3.3-1.7
			C894.59,1230.19,894.57,1228.35,893.3,1227.6z"/>
		<path class="st0" d="M369.05,987.2c-1.74-0.94-3.79-0.61-4.6,0.73c-0.8,1.35-0.05,3.2,1.68,4.15
			c45.71,24.8,91.84,44.68,135.9,62.5c0.49,0.2,1.01,0.29,1.54,0.28c1.24-0.02,2.45-0.62,3.04-1.63c0.85-1.43,0.18-3.12-1.5-3.8
			C460.98,1031.7,414.8,1011.9,369.05,987.2z"/>
		<path class="st0" d="M299.51,950.97c1.2,0.29,2.35-0.05,2.9-0.97c0.78-1.31,0.08-3.28-1.57-4.42
			c-5.08-3.53-10.11-7.14-15.06-10.82c-1.6-1.19-3.51-1.12-4.28,0.15c-0.77,1.28-0.11,3.3,1.49,4.5c4.94,3.7,9.95,7.33,15.03,10.87
			C298.5,950.63,299.01,950.85,299.51,950.97z"/>
		<path class="st0" d="M309.99,951.82c-1.66-1.11-3.64-0.97-4.43,0.34c-0.78,1.3-0.08,3.27,1.58,4.39
			c15.93,10.71,32.34,20.68,48.91,29.97c0.51,0.28,1.04,0.46,1.57,0.53c1.26,0.17,2.45-0.27,3.02-1.21c0.8-1.35,0.05-3.21-1.68-4.17
			C342.38,972.4,325.95,962.48,309.99,951.82z"/>
		<path class="st0" d="M773.85,1193.25c1.14-0.04,2.39-0.69,3.21-1.77c1.16-1.53,1-3.35-0.35-4.05
			c-50.61-26.56-104.17-50.93-161.64-74.22c-1.53-0.62-3.55,0.07-4.51,1.54c-0.96,1.47-0.5,3.17,1.02,3.8
			c57.27,23.42,110.59,47.91,160.94,74.43C772.92,1193.18,773.37,1193.27,773.85,1193.25z"/>
		<path class="st0" d="M862.6,1234.86c-25.28-14.57-51.25-29.14-78.07-43.32c-1.34-0.71-3.36-0.03-4.52,1.49
			c-1.15,1.53-1.03,3.33,0.3,4.04c26.68,14.15,52.51,28.64,77.64,43.08c0.37,0.21,0.81,0.31,1.28,0.31c1.13-0.01,2.42-0.6,3.33-1.63
			C863.85,1237.38,863.87,1235.59,862.6,1234.86z"/>
		<path class="st0" d="M504.73,1075.5c15.85,6.46,31.46,12.69,46.79,18.82c0.01,0.01,0.02,0.01,0.03,0.01
			c3.09,1.23,6.17,2.46,9.23,3.69c0.01,0,0.01,0.01,0.02,0.01c14.18,5.67,28.13,11.26,41.85,16.86c0.45,0.18,0.94,0.25,1.44,0.23
			c1.19-0.07,2.4-0.71,3.07-1.75c0.96-1.47,0.48-3.17-1.06-3.79c-10.68-4.32-21.49-8.64-32.45-12.99c0,0-0.01-0.01-0.02-0.01
			c-84.89-34.22-184.09-69.98-275.42-132.15c-1.64-1.13-3.62-1.02-4.4,0.27c-0.78,1.29-0.1,3.27,1.55,4.42
			C363.27,1015.99,437.56,1047.97,504.73,1075.5C504.72,1075.5,504.72,1075.5,504.73,1075.5z"/>
		<path class="st0" d="M715.34,1225.61c-40.81-21.22-83.84-41.96-129.79-62.17c-1.46-0.65-3.51-0.04-4.55,1.35
			c-1.04,1.39-0.71,3.04,0.76,3.69c45.74,20.26,88.54,41.03,129.12,62.11c0.38,0.2,0.83,0.29,1.3,0.28
			c1.13-0.01,2.42-0.57,3.29-1.54C716.71,1227.95,716.65,1226.28,715.34,1225.61z"/>
		<path class="st0" d="M533.03,1140.73c-1.55-0.66-3.59-0.08-4.57,1.3c-0.98,1.38-0.53,3.02,1.01,3.68
			c14.89,6.38,29.46,12.68,43.75,18.98c0.43,0.19,0.91,0.27,1.41,0.26c1.18-0.03,2.41-0.62,3.14-1.6c1.04-1.39,0.68-3.05-0.8-3.69
			C562.61,1153.37,547.97,1147.09,533.03,1140.73z"/>
		<path class="st0" d="M736.21,1236.53c-4.4-2.32-8.82-4.64-13.27-6.97c-1.3-0.68-3.35-0.11-4.59,1.26
			c-1.24,1.37-1.2,3.01,0.09,3.69c4.42,2.31,8.82,4.61,13.19,6.91c0.38,0.19,0.82,0.29,1.29,0.29c1.13-0.01,2.42-0.56,3.32-1.51
			C737.49,1238.85,737.49,1237.2,736.21,1236.53z"/>
		<path class="st0" d="M753.73,1245.83c-3.35-1.79-6.71-3.58-10.1-5.37c-1.28-0.67-3.33-0.12-4.61,1.22
			c-1.27,1.35-1.28,2.97-0.02,3.63c3.36,1.78,6.71,3.55,10.03,5.31c0.37,0.2,0.8,0.29,1.28,0.29c1.12,0,2.42-0.53,3.34-1.47
			C754.96,1248.13,754.99,1246.5,753.73,1245.83z"/>
		<path class="st0" d="M386.7,1082.08c46.03,22.56,90.6,41.25,132.52,59.24c0.46,0.2,0.96,0.28,1.46,0.28
			c1.2-0.02,2.43-0.59,3.12-1.55c0.98-1.37,0.51-3.02-1.05-3.68c-50.96-21.77-106.1-44.52-162.46-74.08
			c-0.68-0.36-1.36-0.72-2.03-1.07c-0.01,0-0.01,0-0.02,0c-0.28-0.03-0.55-0.06-0.83-0.09c-1.91-0.21-3.43,0.9-3.41,2.49
			c0.01,1.02,0.68,1.98,1.66,2.59c0.13,0.08,0.23,0.17,0.36,0.24c1.6,0.85,3.21,1.7,4.81,2.54c8.64,4.52,17.27,8.89,25.86,13.11
			C386.69,1082.08,386.69,1082.08,386.7,1082.08z"/>
		<path class="st0" d="M767.99,1230.38c-33.74-18.2-68.93-36.28-105.91-53.61c-1.41-0.66-3.44-0.02-4.54,1.42
			c-1.1,1.44-0.86,3.14,0.54,3.8c36.79,17.36,71.81,35.4,105.34,53.46c0.38,0.2,0.82,0.29,1.29,0.29c1.13-0.01,2.42-0.58,3.32-1.57
			C769.29,1232.78,769.27,1231.07,767.99,1230.38z"/>
		<path class="st0" d="M651.27,1178.4c1.16-0.04,2.4-0.65,3.17-1.67c1.1-1.44,0.84-3.15-0.58-3.8
			c-34.91-16.23-71.46-31.81-109.92-47.8c-1.56-0.65-3.61-0.04-4.57,1.35c-0.96,1.39-0.47,3.05,1.07,3.71
			c38.33,16.05,74.71,31.7,109.46,47.96C650.31,1178.33,650.79,1178.42,651.27,1178.4z"/>
		<path class="st0" d="M531.55,1126.11c1.21-0.03,2.43-0.61,3.1-1.6c0.96-1.39,0.46-3.06-1.12-3.71
			c-62.32-26.11-131.24-53.65-199.74-93.12c-1.71-0.99-3.77-0.74-4.58,0.58c-0.82,1.31-0.11,3.19,1.6,4.19
			c68.39,39.57,137.17,67.18,199.27,93.4C530.55,1126.04,531.05,1126.12,531.55,1126.11z"/>
		<path class="st0" d="M793.57,1244.31c-5.99-3.29-12.02-6.59-18.11-9.89c-1.28-0.69-3.34-0.11-4.6,1.28
			c-1.27,1.39-1.27,3.06-0.01,3.75c6.05,3.27,12.05,6.54,18,9.79c0.36,0.2,0.8,0.29,1.27,0.29c1.12,0,2.43-0.55,3.35-1.51
			C794.79,1246.68,794.83,1245.01,793.57,1244.31z"/>
		<path class="st0" d="M585.48,1128.2c1.19-0.05,2.41-0.68,3.1-1.69c0.98-1.44,0.52-3.12-1.01-3.76
			c-22.54-9.31-45.72-18.64-69.54-28.36c-1.62-0.66-3.68-0.06-4.58,1.34c-0.91,1.4-0.33,3.07,1.28,3.74
			c23.76,9.77,46.86,19.14,69.32,28.49C584.49,1128.15,584.98,1128.23,585.48,1128.2z"/>
		<path class="st0" d="M506.77,1095.85c1.23-0.02,2.45-0.6,3.08-1.59c0.91-1.4,0.32-3.07-1.32-3.75
			c-61.93-25.56-129.83-54.27-194.58-95.14c-1.69-1.07-3.7-0.89-4.5,0.42c-0.81,1.3-0.09,3.24,1.59,4.31
			c64.64,41.01,132.45,69.8,194.21,95.47C505.74,1095.77,506.26,1095.86,506.77,1095.85z"/>
		<path class="st0" d="M730.8,1194.6c1.14-0.03,2.39-0.67,3.21-1.71c1.16-1.49,0.99-3.25-0.37-3.94
			c-43.22-21.9-88.7-42.42-137.14-62.49c-1.52-0.64-3.55,0.03-4.53,1.47c-0.99,1.44-0.54,3.12,0.97,3.76
			c48.26,20.16,93.54,40.77,136.53,62.65C729.87,1194.53,730.33,1194.62,730.8,1194.6z"/>
		<path class="st0" d="M829.53,1240.52c-28.31-15.95-57.59-32.01-88.01-47.56c-1.35-0.69-3.38-0.04-4.54,1.45
			c-1.16,1.48-1.01,3.24,0.33,3.93c30.26,15.53,59.38,31.49,87.52,47.28c0.37,0.2,0.8,0.3,1.27,0.3c1.12,0,2.43-0.58,3.35-1.57
			C830.76,1242.95,830.79,1241.23,829.53,1240.52z"/>
		<path class="st0" d="M699.77,1242.52c-40.01-20.68-82.23-41.46-127.44-61.8c-1.44-0.65-3.48-0.08-4.55,1.28
			c-1.07,1.35-0.76,2.98,0.67,3.64c44.98,20.37,86.97,41.12,126.75,61.61c0.37,0.19,0.81,0.28,1.29,0.28c1.13,0,2.42-0.53,3.31-1.45
			C701.06,1244.77,701.06,1243.17,699.77,1242.52z"/>
		<path class="st0" d="M561.43,1182.1c1.17-0.02,2.4-0.58,3.16-1.54c1.06-1.36,0.74-2.99-0.71-3.64
			c-47.39-21.35-98.45-42.38-152.68-67.55c-1.66-0.78-3.74-0.33-4.63,0.99c-0.89,1.32-0.27,3.03,1.39,3.81
			c54.07,25.2,104.92,46.28,152.08,67.66C560.47,1182.02,560.95,1182.1,561.43,1182.1z"/>
		<path class="st0" d="M400.13,1104.16c-1.28-0.61-2.56-1.22-3.84-1.84c-1.68-0.81-3.75-0.39-4.63,0.93
			c-0.88,1.32-0.24,3.05,1.43,3.86c1.28,0.62,2.56,1.23,3.83,1.84c0.49,0.23,1.02,0.36,1.54,0.4c1.25,0.07,2.46-0.42,3.09-1.35
			C402.44,1106.67,401.8,1104.95,400.13,1104.16z"/>
		<path class="st0" d="M639.74,1234.26c-5.9-2.93-11.85-5.87-17.85-8.8c-1.34-0.65-3.38-0.11-4.56,1.2
			c-1.18,1.31-1.06,2.9,0.27,3.55c5.97,2.92,11.89,5.84,17.75,8.76c0.38,0.19,0.83,0.28,1.3,0.28c1.13-0.01,2.4-0.53,3.26-1.45
			C641.13,1236.5,641.06,1234.91,639.74,1234.26z"/>
		<path class="st0" d="M487.88,1163.75c-13.37-5.92-27.01-11.94-40.9-18.17c-1.59-0.71-3.65-0.23-4.59,1.1
			c-0.94,1.32-0.42,2.97,1.16,3.68c13.84,6.23,27.41,12.26,40.73,18.18c0.45,0.2,0.94,0.3,1.44,0.3c1.2,0,2.42-0.53,3.12-1.47
			C489.85,1166.05,489.42,1164.42,487.88,1163.75z"/>
		<path class="st0" d="M614.08,1221.64c-36.5-17.77-75.01-35.28-116.1-53.43c-1.51-0.67-3.56-0.14-4.56,1.19
			c-1,1.32-0.59,2.94,0.92,3.61c40.9,18.16,79.21,35.7,115.5,53.4c0.4,0.19,0.85,0.28,1.32,0.28c1.14-0.01,2.4-0.55,3.23-1.47
			C615.56,1223.9,615.42,1222.3,614.08,1221.64z"/>
	</g>
</g>
</svg>
